<?xml version="1.0" encoding="UTF-8" standalone="no"?>
<!-- Created with Inkscape (http://www.inkscape.org/) -->
<svg
   xmlns:dc="http://purl.org/dc/elements/1.1/"
   xmlns:cc="http://creativecommons.org/ns#"
   xmlns:rdf="http://www.w3.org/1999/02/22-rdf-syntax-ns#"
   xmlns:svg="http://www.w3.org/2000/svg"
   xmlns="http://www.w3.org/2000/svg"
   xmlns:sodipodi="http://sodipodi.sourceforge.net/DTD/sodipodi-0.dtd"
   xmlns:inkscape="http://www.inkscape.org/namespaces/inkscape"
   width="285.51514"
   height="140"
   id="svg2"
   sodipodi:version="0.32"
   inkscape:version="0.46"
   sodipodi:docname="banner.svg"
   inkscape:output_extension="org.inkscape.output.svg.inkscape"
   version="1.0"
   inkscape:export-filename="/media/Shakti/louise/Documents/Ideas4kids.org/website/banner/bannerheading.png"
   inkscape:export-xdpi="90"
   inkscape:export-ydpi="90">
  <defs
     id="defs4">
    <inkscape:perspective
       sodipodi:type="inkscape:persp3d"
       inkscape:vp_x="0 : 526.18109 : 1"
       inkscape:vp_y="0 : 1000 : 0"
       inkscape:vp_z="744.09448 : 526.18109 : 1"
       inkscape:persp3d-origin="372.04724 : 350.78739 : 1"
       id="perspective10" />
    <inkscape:perspective
       id="perspective2460"
       inkscape:persp3d-origin="372.04724 : 350.78739 : 1"
       inkscape:vp_z="744.09448 : 526.18109 : 1"
       inkscape:vp_y="0 : 1000 : 0"
       inkscape:vp_x="0 : 526.18109 : 1"
       sodipodi:type="inkscape:persp3d" />
  </defs>
  <sodipodi:namedview
     id="base"
     pagecolor="#ffffff"
     bordercolor="#666666"
     borderopacity="1.0"
     gridtolerance="10000"
     guidetolerance="10"
     objecttolerance="10"
     inkscape:pageopacity="0.0"
     inkscape:pageshadow="2"
     inkscape:zoom="3.4851072"
     inkscape:cx="144.39066"
     inkscape:cy="65.970882"
     inkscape:document-units="px"
     inkscape:current-layer="g3770"
     showgrid="true"
     inkscape:snap-global="false"
     inkscape:window-width="1429"
     inkscape:window-height="871"
     inkscape:window-x="0"
     inkscape:window-y="0">
    <inkscape:grid
       type="xygrid"
       id="grid2565"
       visible="true"
       enabled="true" />
  </sodipodi:namedview>
  <metadata
     id="metadata7">
    <rdf:RDF>
      <cc:Work
         rdf:about="">
        <dc:format>image/svg+xml</dc:format>
        <dc:type
           rdf:resource="http://purl.org/dc/dcmitype/StillImage" />
      </cc:Work>
    </rdf:RDF>
  </metadata>
  <g
     inkscape:label="Layer 1"
     inkscape:groupmode="layer"
     id="layer1"
     transform="translate(-321.48188,-253.75285)">
    <g
       transform="translate(178.32023,-4.6828393)"
       id="g2462"
       inkscape:label="Layer 1">
      <g
         transform="matrix(0.4661697,0,0,0.4661697,101.19838,171.54761)"
         id="g3193">
        <g
           id="g3770"
           transform="matrix(0.9984132,0,0,0.9969381,0.6272242,1.1353564)"
           inkscape:export-filename="/media/Shakti/louise/Documents/Ideas4kids.org/website/banner/bannerheading.png"
           inkscape:export-xdpi="90"
           inkscape:export-ydpi="90">
          <g
             id="g3482"
             transform="matrix(1.0000513,0,0,1.0071053,22.165523,-59.70205)">
            <g
               id="g3345"
               style="fill:#ff00a9;fill-opacity:1"
               transform="translate(1.5976742,-2.6627903)" />
            <g
               id="g2549">
              <g
                 transform="translate(-4.6047005e-6,-1.0359401e-5)"
                 id="g3368" />
              <g
                 id="g3372"
                 transform="translate(36.507906,-0.3467737)" />
            </g>
            <g
               id="g2555"
               transform="translate(37.591011,-0.1957094)">
              <g
                 transform="translate(-4.6047005e-6,-1.0359401e-5)"
                 id="g2557" />
              <g
                 id="g2561"
                 transform="translate(36.507906,-0.3467737)" />
            </g>
            <g
               id="g3656">
              <path
                 sodipodi:type="arc"
                 style="fill:#000000;fill-opacity:1;fill-rule:evenodd;stroke:#000000;stroke-width:0.68511796px;stroke-linecap:butt;stroke-linejoin:miter;stroke-opacity:1"
                 id="path3439"
                 sodipodi:cx="462.98453"
                 sodipodi:cy="322.60873"
                 sodipodi:rx="21.411718"
                 sodipodi:ry="18.135607"
                 d="M 484.39625,322.60873 A 21.411718,18.135607 0 1 1 441.57281,322.60873 A 21.411718,18.135607 0 1 1 484.39625,322.60873 z"
                 transform="matrix(3.1431286,0,0,3.111311,-1083.6578,-657.63319)" />
              <path
                 style="fill:#000080;fill-opacity:1;fill-rule:evenodd;stroke:#000680;stroke-width:2.14248681px;stroke-linecap:butt;stroke-linejoin:miter;stroke-opacity:1"
                 d="M 643.50148,457.32266 C 628.98259,447.34362 568.22748,449.48688 558.26553,456.7853 C 546.74452,465.22591 557.55633,365.43181 602.95022,365.32697 C 644.42474,365.23119 646.65321,459.48887 643.50148,457.32266 z"
                 id="path3550"
                 sodipodi:nodetypes="csss" />
              <path
                 style="fill:#d31a07;fill-opacity:1;fill-rule:evenodd;stroke:#d31a07;stroke-width:2.14248681px;stroke-linecap:butt;stroke-linejoin:miter;stroke-opacity:1"
                 d="M 196.14808,456.32555 C 181.62919,446.3465 120.87408,448.48976 110.91213,455.78818 C 99.391118,464.22879 110.20291,364.43469 155.5968,364.32985 C 197.07133,364.23407 199.29979,458.49175 196.14808,456.32555 z"
                 id="path3500"
                 sodipodi:nodetypes="csss" />
              <path
                 sodipodi:nodetypes="csss"
                 id="path3456"
                 d="M 417.4024,457.81198 C 402.88352,447.83293 342.1284,449.97618 332.16645,457.27462 C 320.64545,465.71521 331.45725,365.92113 376.85114,365.81629 C 418.32566,365.72051 420.55413,459.97819 417.4024,457.81198 z"
                 style="fill:#008000;fill-opacity:1;fill-rule:evenodd;stroke:#008000;stroke-width:2.14248681px;stroke-linecap:butt;stroke-linejoin:miter;stroke-opacity:1" />
              <g
                 id="g2632"
                 transform="matrix(1.338096,0,0,1.2795205,-124.797,-141.71775)">
                <path
                   style="fill:#ffffff;fill-opacity:1;fill-rule:evenodd;stroke:#000000;stroke-width:1.63738549px;stroke-linecap:butt;stroke-linejoin:miter;stroke-opacity:1"
                   d="M 154.53008,461.49911 L 590.89293,461.49911 L 590.89293,534.21719 L 154.53008,534.21719 L 154.53008,461.49911 z"
                   id="path2646"
                   sodipodi:nodetypes="ccccc" />
              </g>
              <g
                 transform="matrix(1.0194271,0,0,1.0091076,-227.5199,-33.746457)"
                 id="g3510">
                <path
                   transform="matrix(1.7489054,0,0,1.8851245,-106.06466,-240.67836)"
                   d="M 302.99592,307.16071 A 27.561043,28.965427 0 1 1 247.87383,307.16071 A 27.561043,28.965427 0 1 1 302.99592,307.16071 z"
                   sodipodi:ry="28.965427"
                   sodipodi:rx="27.561043"
                   sodipodi:cy="307.16071"
                   sodipodi:cx="275.43488"
                   id="path3512"
                   style="fill:#ffccaa;fill-opacity:1;fill-rule:evenodd;stroke:#ffccaa;stroke-width:1.16337085px;stroke-linecap:butt;stroke-linejoin:miter;stroke-opacity:1"
                   sodipodi:type="arc" />
                <path
                   style="fill:none;fill-opacity:0.75;fill-rule:evenodd;stroke:#cd152b;stroke-width:2.11237669px;stroke-linecap:butt;stroke-linejoin:miter;stroke-opacity:1"
                   d="M 360.74064,371.41521 C 361.86613,371.52843 371.32307,371.48222 376.45112,373.01289 C 381.7741,371.35338 387.5412,371.39176 390.5639,371.41521 C 378.4239,380.65324 367.11551,375.81976 360.74064,371.41521 z"
                   id="path3514"
                   sodipodi:nodetypes="cccc" />
                <path
                   style="fill:none;fill-opacity:0.75;fill-rule:evenodd;stroke:#e07cb3;stroke-width:2.11237669px;stroke-linecap:butt;stroke-linejoin:miter;stroke-opacity:1"
                   d="M 376.18484,342.65707 C 375.27846,350.82167 369.40469,353.05382 370.59297,356.50358 C 374.54495,359.08195 375.93558,356.5376 378.58135,356.50358"
                   id="path3516"
                   sodipodi:nodetypes="ccc" />
                <path
                   sodipodi:nodetypes="ccc"
                   transform="matrix(2.1451416,0,0,2.1451416,-217.08486,-367.99392)"
                   id="path3518"
                   d="M 262.85567,330.5086 C 266.39498,334.73983 270.42282,333.31993 272.31762,329.98196 C 267.38912,325.62336 264.6572,328.51206 262.85567,330.5086 z"
                   style="fill:#ffffff;fill-opacity:1;fill-rule:evenodd;stroke:#000000;stroke-width:0.98472583px;stroke-linecap:butt;stroke-linejoin:miter;stroke-opacity:1" />
                <path
                   transform="matrix(2.1451416,0,0,2.1451416,-213.9343,-370.13334)"
                   d="M 269.11515,331.64966 A 1.5799325,1.4921584 0 1 1 265.95528,331.64966 A 1.5799325,1.4921584 0 1 1 269.11515,331.64966 z"
                   sodipodi:ry="1.4921584"
                   sodipodi:rx="1.5799325"
                   sodipodi:cy="331.64966"
                   sodipodi:cx="267.53522"
                   id="path3520"
                   style="fill:#000000;fill-opacity:1;fill-rule:evenodd;stroke:#000000;stroke-width:0.98472583px;stroke-linecap:butt;stroke-linejoin:miter;stroke-opacity:1"
                   sodipodi:type="arc" />
                <path
                   sodipodi:nodetypes="ccc"
                   transform="matrix(2.1451416,0,0,2.1451416,-179.49385,-368.18963)"
                   id="path3522"
                   d="M 262.85567,330.5086 C 266.39498,334.73983 270.42282,333.31993 272.31762,329.98196 C 267.38912,325.62336 264.6572,328.51206 262.85567,330.5086 z"
                   style="fill:#ffffff;fill-opacity:1;fill-rule:evenodd;stroke:#000000;stroke-width:0.98472583px;stroke-linecap:butt;stroke-linejoin:miter;stroke-opacity:1" />
                <path
                   transform="matrix(2.1451416,0,0,2.1451416,-175.4189,-370.03546)"
                   d="M 269.11515,331.64966 A 1.5799325,1.4921584 0 1 1 265.95528,331.64966 A 1.5799325,1.4921584 0 1 1 269.11515,331.64966 z"
                   sodipodi:ry="1.4921584"
                   sodipodi:rx="1.5799325"
                   sodipodi:cy="331.64966"
                   sodipodi:cx="267.53522"
                   id="path3524"
                   style="fill:#000000;fill-opacity:1;fill-rule:evenodd;stroke:#000000;stroke-width:0.98472583px;stroke-linecap:butt;stroke-linejoin:miter;stroke-opacity:1"
                   sodipodi:type="arc" />
                <path
                   style="fill:none;fill-opacity:0.75;fill-rule:evenodd;stroke:#8c500a;stroke-width:2.11237669px;stroke-linecap:butt;stroke-linejoin:miter;stroke-opacity:1"
                   d="M 345.51882,330.82631 C 352.88539,324.43499 359.86688,323.04961 366.23048,329.69659"
                   id="path3526"
                   sodipodi:nodetypes="cc" />
                <path
                   style="fill:none;fill-opacity:0.75;fill-rule:evenodd;stroke:#8c500a;stroke-width:2.11237669px;stroke-linecap:butt;stroke-linejoin:miter;stroke-opacity:1"
                   d="M 384.00781,331.04983 C 391.37438,324.65851 398.35587,323.27313 404.71947,329.92011"
                   id="path3528"
                   sodipodi:nodetypes="cc" />
              </g>
              <path
                 style="fill:#008000;fill-opacity:1;fill-rule:evenodd;stroke:#008000;stroke-width:2.14248681px;stroke-linecap:butt;stroke-linejoin:miter;stroke-opacity:1"
                 d="M 380.50237,369.90842 C 386.65292,355.14239 461.96279,428.79881 451.24098,435.47225 C 436.94451,442.49611 443.04201,430.85261 428.74552,429.8076 C 390.50442,401.29079 386.75808,393.8274 374.62916,378.50693 L 380.50237,369.90842 z"
                 id="path3538"
                 sodipodi:nodetypes="ccccc" />
              <path
                 style="fill:#008000;fill-opacity:1;fill-rule:evenodd;stroke:#008000;stroke-width:2.14248681px;stroke-linecap:butt;stroke-linejoin:miter;stroke-opacity:1"
                 d="M 373.11348,367.89429 C 366.96293,353.12825 279.88322,426.27813 290.60503,432.95157 C 304.9015,439.97543 326.94928,417.69433 341.24576,416.64934 C 379.48687,388.13252 368.90471,394.85257 381.03363,379.53212 L 373.11348,367.89429 z"
                 id="path3420"
                 sodipodi:nodetypes="ccccc" />
              <g
                 transform="matrix(1.0194272,0,0,1.0091076,-6.2655682,-32.260015)"
                 id="g3446">
                <path
                   sodipodi:type="arc"
                   style="fill:#d38d5f;fill-opacity:1;fill-rule:evenodd;stroke:#d38d5f;stroke-width:1.16337085px;stroke-linecap:butt;stroke-linejoin:miter;stroke-opacity:1"
                   id="path3315"
                   sodipodi:cx="275.43488"
                   sodipodi:cy="307.16071"
                   sodipodi:rx="27.561043"
                   sodipodi:ry="28.965427"
                   d="M 302.99592,307.16071 A 27.561043,28.965427 0 1 1 247.87383,307.16071 A 27.561043,28.965427 0 1 1 302.99592,307.16071 z"
                   transform="matrix(1.7489054,0,0,1.8851245,-106.06466,-240.67836)" />
                <path
                   sodipodi:nodetypes="cccc"
                   id="path3380"
                   d="M 360.74064,371.41521 C 361.86613,371.52843 371.32307,371.48222 376.45112,373.01289 C 381.7741,371.35338 387.5412,371.39176 390.5639,371.41521 C 378.4239,380.65324 367.11551,375.81976 360.74064,371.41521 z"
                   style="fill:none;fill-opacity:0.75;fill-rule:evenodd;stroke:#8c500a;stroke-width:2.11237669px;stroke-linecap:butt;stroke-linejoin:miter;stroke-opacity:1" />
                <path
                   sodipodi:nodetypes="ccc"
                   id="path3378"
                   d="M 376.18484,342.65707 C 375.27846,350.82167 369.40469,353.05382 370.59297,356.50358 C 374.54495,359.08195 375.93558,356.5376 378.58135,356.50358"
                   style="fill:none;fill-opacity:0.75;fill-rule:evenodd;stroke:#8c500a;stroke-width:2.11237669px;stroke-linecap:butt;stroke-linejoin:miter;stroke-opacity:1" />
                <path
                   style="fill:#ffffff;fill-opacity:1;fill-rule:evenodd;stroke:#000000;stroke-width:0.98472583px;stroke-linecap:butt;stroke-linejoin:miter;stroke-opacity:1"
                   d="M 262.85567,330.5086 C 266.39498,334.73983 270.42282,333.31993 272.31762,329.98196 C 267.38912,325.62336 264.6572,328.51206 262.85567,330.5086 z"
                   id="path3364"
                   transform="matrix(2.1451416,0,0,2.1451416,-217.08486,-367.99392)"
                   sodipodi:nodetypes="ccc" />
                <path
                   sodipodi:type="arc"
                   style="fill:#000000;fill-opacity:1;fill-rule:evenodd;stroke:#000000;stroke-width:0.98472583px;stroke-linecap:butt;stroke-linejoin:miter;stroke-opacity:1"
                   id="path3388"
                   sodipodi:cx="267.53522"
                   sodipodi:cy="331.64966"
                   sodipodi:rx="1.5799325"
                   sodipodi:ry="1.4921584"
                   d="M 269.11515,331.64966 A 1.5799325,1.4921584 0 1 1 265.95528,331.64966 A 1.5799325,1.4921584 0 1 1 269.11515,331.64966 z"
                   transform="matrix(2.1451416,0,0,2.1451416,-217.26234,-370.47857)" />
                <path
                   style="fill:#ffffff;fill-opacity:1;fill-rule:evenodd;stroke:#000000;stroke-width:0.98472583px;stroke-linecap:butt;stroke-linejoin:miter;stroke-opacity:1"
                   d="M 262.85567,330.5086 C 266.39498,334.73983 270.42282,333.31993 272.31762,329.98196 C 267.38912,325.62336 264.6572,328.51206 262.85567,330.5086 z"
                   id="path2559"
                   transform="matrix(2.1451416,0,0,2.1451416,-179.49385,-368.18963)"
                   sodipodi:nodetypes="ccc" />
                <path
                   sodipodi:type="arc"
                   style="fill:#000000;fill-opacity:1;fill-rule:evenodd;stroke:#000000;stroke-width:0.98472583px;stroke-linecap:butt;stroke-linejoin:miter;stroke-opacity:1"
                   id="path2563"
                   sodipodi:cx="267.53522"
                   sodipodi:cy="331.64966"
                   sodipodi:rx="1.5799325"
                   sodipodi:ry="1.4921584"
                   d="M 269.11515,331.64966 A 1.5799325,1.4921584 0 1 1 265.95528,331.64966 A 1.5799325,1.4921584 0 1 1 269.11515,331.64966 z"
                   transform="matrix(2.1451416,0,0,2.1451416,-179.49385,-370.67428)" />
                <path
                   sodipodi:nodetypes="cc"
                   id="path3382"
                   d="M 345.51882,330.82631 C 352.88539,324.43499 359.86688,323.04961 366.23048,329.69659"
                   style="fill:none;fill-opacity:0.75;fill-rule:evenodd;stroke:#8c500a;stroke-width:2.11237669px;stroke-linecap:butt;stroke-linejoin:miter;stroke-opacity:1" />
                <path
                   sodipodi:nodetypes="cc"
                   id="path3384"
                   d="M 384.00781,331.04983 C 391.37438,324.65851 398.35587,323.27313 404.71947,329.92011"
                   style="fill:none;fill-opacity:0.75;fill-rule:evenodd;stroke:#8c500a;stroke-width:2.11237669px;stroke-linecap:butt;stroke-linejoin:miter;stroke-opacity:1" />
              </g>
              <path
                 style="fill:#000000;fill-opacity:1;fill-rule:evenodd;stroke:#000000;stroke-width:2.14248681px;stroke-linecap:butt;stroke-linejoin:miter;stroke-opacity:1"
                 d="M 375.90925,246.47859 C 322.90491,243.57496 308.58182,287.63202 306.04142,304.62267 C 303.84322,319.32448 294.37091,349.30855 295.46195,360.40532 C 304.34307,398.83433 288.03874,398.68001 282.45767,396.16725 C 275.95589,414.25566 341.70663,418.44065 347.87339,398.47298 C 355.0549,375.21962 328.39936,315.39197 327.52603,307.85754 C 325.27504,288.43767 361.61649,295.96128 376.29314,262.05882 C 383.84526,295.40909 413.87124,277.19326 425.16439,308.7776 C 431.17238,325.58054 381.8495,383.45832 397.80543,392.39436 C 412.89825,414.2887 452.18983,423.06011 461.43402,400.36378 C 438.15822,392.77181 454.27272,381.88455 453.19444,361.54468 C 452.26613,344.03401 450.75666,327.46344 447.82586,312.47513 C 447.03105,308.4104 442.5345,294.05511 440.50817,290.18482 C 431.23856,272.47956 428.96748,249.38517 375.90925,246.47859 z"
                 id="path3325"
                 sodipodi:nodetypes="csccsscsccssss" />
              <path
                 style="fill:#d31a07;fill-opacity:1;fill-rule:evenodd;stroke:#d31a07;stroke-width:2.14248681px;stroke-linecap:butt;stroke-linejoin:miter;stroke-opacity:1"
                 d="M 159.24804,368.42198 C 165.39859,353.65595 240.70847,427.31238 229.98666,433.98582 C 215.69017,441.00969 221.78768,429.36617 207.49119,428.32118 C 169.25008,399.80436 165.50375,392.34096 153.37483,377.02049 L 159.24804,368.42198 z"
                 id="path3502"
                 sodipodi:nodetypes="ccccc" />
              <path
                 style="fill:#d31a07;fill-opacity:1;fill-rule:evenodd;stroke:#d31a07;stroke-width:2.14248681px;stroke-linecap:butt;stroke-linejoin:miter;stroke-opacity:1"
                 d="M 151.85915,366.40785 C 145.7086,351.64182 58.628881,424.7917 69.350697,431.46513 C 83.647178,438.48899 105.69494,416.20791 119.99143,415.1629 C 158.23254,386.64608 147.65037,393.36614 159.77929,378.04568 L 151.85915,366.40785 z"
                 id="path3506"
                 sodipodi:nodetypes="ccccc" />
              <path
                 style="fill:#502d16;fill-opacity:1;fill-rule:evenodd;stroke:#502d16;stroke-width:2.14248681px;stroke-linecap:butt;stroke-linejoin:miter;stroke-opacity:1"
                 d="M 154.65491,244.99216 C 101.65059,242.08854 91.863858,287.45395 84.787084,303.13623 C 78.15451,317.8342 90.043528,324.89976 88.352901,341.09806 C 71.173591,364.821 124.62104,376.72806 123.40425,358.79923 C 121.75771,334.53819 102.88001,313.17132 106.2717,306.37111 C 112.80708,293.26792 121.70076,303.70715 126.10543,258.66301 C 133.65756,292.01328 194.65802,275.0629 203.91007,307.29116 C 210.97093,331.88671 180.8253,357.17947 190.05334,359.72161 C 199.16067,379.19057 239.07294,357.11068 229.36799,343.50916 C 219.14954,329.18798 238.08647,327.67644 226.57154,310.98869 C 224.2125,307.56991 221.28016,292.56868 219.25384,288.69838 C 209.98423,270.99313 207.71316,247.89875 154.65491,244.99216 z"
                 id="path3530"
                 sodipodi:nodetypes="cscsscscssss" />
              <path
                 sodipodi:type="arc"
                 style="fill:#d38d5f;fill-opacity:1;fill-rule:evenodd;stroke:#d38d5f;stroke-width:0.65383142px;stroke-linecap:butt;stroke-linejoin:miter;stroke-opacity:1"
                 id="path3544"
                 sodipodi:cx="341.73325"
                 sodipodi:cy="351.02081"
                 sodipodi:rx="5.0893798"
                 sodipodi:ry="4.2204614"
                 d="M 346.82263,351.02081 A 5.0893798,4.2204614 0 1 1 336.64387,351.02081 A 5.0893798,4.2204614 0 1 1 346.82263,351.02081 z"
                 transform="matrix(-2.4653252,1.1379624,-1.6852841,-3.5775185,1738.5873,1308.2004)" />
              <path
                 sodipodi:type="arc"
                 style="fill:#d38d5f;fill-opacity:1;fill-rule:evenodd;stroke:#d38d5f;stroke-width:0.65383142px;stroke-linecap:butt;stroke-linejoin:miter;stroke-opacity:1"
                 id="path2648"
                 sodipodi:cx="341.73325"
                 sodipodi:cy="351.02081"
                 sodipodi:rx="5.0893798"
                 sodipodi:ry="4.2204614"
                 d="M 346.82263,351.02081 A 5.0893798,4.2204614 0 1 1 336.64387,351.02081 A 5.0893798,4.2204614 0 1 1 346.82263,351.02081 z"
                 transform="matrix(2.4653252,1.1379622,1.6852841,-3.5775187,-997.04791,1308.4539)" />
              <path
                 style="fill:#000080;fill-opacity:1;fill-rule:evenodd;stroke:#000680;stroke-width:2.14248681px;stroke-linecap:butt;stroke-linejoin:miter;stroke-opacity:1"
                 d="M 606.60145,369.4191 C 636.39089,351.6783 691.79125,427.28832 677.34006,434.98293 C 663.04358,442.00681 669.14108,430.36329 654.8446,429.3183 C 616.60348,400.80148 612.85715,393.33808 600.72823,378.01761 L 606.60145,369.4191 z"
                 id="path3552"
                 sodipodi:nodetypes="ccccc" />
              <path
                 sodipodi:type="arc"
                 style="fill:#ffdfcb;fill-opacity:1;fill-rule:evenodd;stroke:#ffdfcb;stroke-width:0.65383142px;stroke-linecap:butt;stroke-linejoin:miter;stroke-opacity:1"
                 id="path3554"
                 sodipodi:cx="341.73325"
                 sodipodi:cy="351.02081"
                 sodipodi:rx="5.0893798"
                 sodipodi:ry="4.2204614"
                 d="M 346.82263,351.02081 A 5.0893798,4.2204614 0 1 1 336.64387,351.02081 A 5.0893798,4.2204614 0 1 1 346.82263,351.02081 z"
                 transform="matrix(2.4653252,1.1379622,1.6852841,-3.5775187,-770.94885,1307.9646)" />
              <path
                 style="fill:#000080;fill-opacity:1;fill-rule:evenodd;stroke:#000680;stroke-width:2.14248681px;stroke-linecap:butt;stroke-linejoin:miter;stroke-opacity:1"
                 d="M 599.21256,367.40497 C 558.91686,353.26849 498.09578,423.02578 516.7041,432.46225 C 531.00058,439.48611 553.04834,417.20503 567.34484,416.16002 C 605.58594,387.6432 595.00377,394.36326 607.13269,379.0428 L 599.21256,367.40497 z"
                 id="path3556"
                 sodipodi:nodetypes="ccccc" />
              <path
                 sodipodi:type="arc"
                 style="fill:#ffdfcb;fill-opacity:1;fill-rule:evenodd;stroke:#ffdfcb;stroke-width:0.65383142px;stroke-linecap:butt;stroke-linejoin:miter;stroke-opacity:1"
                 id="path3558"
                 sodipodi:cx="341.73325"
                 sodipodi:cy="351.02081"
                 sodipodi:rx="5.0893798"
                 sodipodi:ry="4.2204614"
                 d="M 346.82263,351.02081 A 5.0893798,4.2204614 0 1 1 336.64387,351.02081 A 5.0893798,4.2204614 0 1 1 346.82263,351.02081 z"
                 transform="matrix(-2.4653252,1.1379624,-1.6852841,-3.5775185,1964.6864,1307.711)" />
              <path
                 transform="matrix(1.7828817,0,0,1.9022936,110.42501,-271.17364)"
                 d="M 302.99592,307.16071 A 27.561043,28.965427 0 1 1 247.87383,307.16071 A 27.561043,28.965427 0 1 1 302.99592,307.16071 z"
                 sodipodi:ry="28.965427"
                 sodipodi:rx="27.561043"
                 sodipodi:cy="307.16071"
                 sodipodi:cx="275.43488"
                 id="path3562"
                 style="fill:#ffdfcb;fill-opacity:1;fill-rule:evenodd;stroke:#ffdfcb;stroke-width:1.16337085px;stroke-linecap:butt;stroke-linejoin:miter;stroke-opacity:1"
                 sodipodi:type="arc" />
              <path
                 style="fill:none;fill-opacity:0.75;fill-rule:evenodd;stroke:#e773b9;stroke-width:2.14248681px;stroke-linecap:butt;stroke-linejoin:miter;stroke-opacity:1"
                 d="M 587.58233,342.04859 C 588.72968,342.16284 598.37035,342.11621 603.59801,343.66083 C 609.02441,341.9862 614.90355,342.02494 617.98497,342.04859 C 605.60913,351.37075 594.08104,346.49325 587.58233,342.04859 z"
                 id="path3564"
                 sodipodi:nodetypes="cccc" />
              <path
                 style="fill:none;fill-opacity:0.75;fill-rule:evenodd;stroke:#e07cb3;stroke-width:2.14248681px;stroke-linecap:butt;stroke-linejoin:miter;stroke-opacity:1"
                 d="M 603.32657,313.02853 C 602.40258,321.26749 596.4147,323.51998 597.62607,327.00115 C 601.65482,329.60301 603.07247,327.03548 605.76963,327.00115"
                 id="path3566"
                 sodipodi:nodetypes="ccc" />
              <path
                 sodipodi:nodetypes="ccc"
                 id="path3568"
                 d="M 573.3482,311.35014 C 581.08802,320.5094 589.89617,317.43577 594.03975,310.21013 C 583.26201,300.77517 577.28782,307.02827 573.3482,311.35014 z"
                 style="fill:#ffffff;fill-opacity:1;fill-rule:evenodd;stroke:#000000;stroke-width:2.14248681px;stroke-linecap:butt;stroke-linejoin:miter;stroke-opacity:1" />
              <path
                 transform="matrix(2.1868157,0,0,2.1646787,-5.4518227,-405.82233)"
                 d="M 269.11515,331.64966 A 1.5799325,1.4921584 0 1 1 265.95528,331.64966 A 1.5799325,1.4921584 0 1 1 269.11515,331.64966 z"
                 sodipodi:ry="1.4921584"
                 sodipodi:rx="1.5799325"
                 sodipodi:cy="331.64966"
                 sodipodi:cx="267.53522"
                 id="path3570"
                 style="fill:#000000;fill-opacity:1;fill-rule:evenodd;stroke:#000000;stroke-width:0.98472583px;stroke-linecap:butt;stroke-linejoin:miter;stroke-opacity:1"
                 sodipodi:type="arc" />
              <path
                 sodipodi:nodetypes="ccc"
                 id="path3572"
                 d="M 611.6695,311.15266 C 619.40931,320.3119 628.21746,317.23829 632.36105,310.01264 C 621.58332,300.57768 615.60912,306.83079 611.6695,311.15266 z"
                 style="fill:#ffffff;fill-opacity:1;fill-rule:evenodd;stroke:#000000;stroke-width:2.14248681px;stroke-linecap:butt;stroke-linejoin:miter;stroke-opacity:1" />
              <path
                 transform="matrix(2.1868157,0,0,2.1646787,33.974636,-406.47726)"
                 d="M 269.11515,331.64966 A 1.5799325,1.4921584 0 1 1 265.95528,331.64966 A 1.5799325,1.4921584 0 1 1 269.11515,331.64966 z"
                 sodipodi:ry="1.4921584"
                 sodipodi:rx="1.5799325"
                 sodipodi:cy="331.64966"
                 sodipodi:cx="267.53522"
                 id="path3574"
                 style="fill:#000000;fill-opacity:1;fill-rule:evenodd;stroke:#000000;stroke-width:0.98472583px;stroke-linecap:butt;stroke-linejoin:miter;stroke-opacity:1"
                 sodipodi:type="arc" />
              <path
                 style="fill:none;fill-opacity:0.75;fill-rule:evenodd;stroke:#8c500a;stroke-width:2.14248681px;stroke-linecap:butt;stroke-linejoin:miter;stroke-opacity:1"
                 d="M 572.06479,301.09002 C 579.57448,294.64049 586.69159,293.24249 593.17883,299.95001"
                 id="path3576"
                 sodipodi:nodetypes="cc" />
              <path
                 style="fill:none;fill-opacity:0.75;fill-rule:evenodd;stroke:#8c500a;stroke-width:2.14248681px;stroke-linecap:butt;stroke-linejoin:miter;stroke-opacity:1"
                 d="M 611.30151,301.31557 C 618.8112,294.86606 625.92832,293.46805 632.41554,300.17558"
                 id="path3578"
                 sodipodi:nodetypes="cc" />
              <path
                 style="fill:#ffb82a;fill-opacity:1;fill-rule:evenodd;stroke:#ffb82a;stroke-width:2.14248681px;stroke-linecap:butt;stroke-linejoin:miter;stroke-opacity:1"
                 d="M 563.95464,293.23476 C 563.73121,289.40807 560.9588,266.91777 574.56005,268.85045 C 585.08504,270.346 586.16674,281.23593 583.40069,282.23816 C 576.95418,284.57394 596.40681,280.55272 602.39222,266.72666 C 617.49982,277.93197 605.60116,278.04957 607.95044,281.15425 C 612.20502,286.77686 622.34392,269.39372 628.51377,270.34837 C 639.85682,272.10347 638.70985,289.26615 637.10859,292.34236 C 646.18307,290.46395 676.6507,253.53787 594.22311,253.28006 C 528.08921,253.07322 564.47379,302.12568 563.95464,293.23476 z"
                 id="path3580"
                 sodipodi:nodetypes="csscsscss" />
              <path
                 sodipodi:type="arc"
                 style="fill:#ffccaa;fill-opacity:1;fill-rule:evenodd;stroke:#ffccaa;stroke-width:0.65383142px;stroke-linecap:butt;stroke-linejoin:miter;stroke-opacity:1"
                 id="path3504"
                 sodipodi:cx="341.73325"
                 sodipodi:cy="351.02081"
                 sodipodi:rx="5.0893798"
                 sodipodi:ry="4.2204614"
                 d="M 346.82263,351.02081 A 5.0893798,4.2204614 0 1 1 336.64387,351.02081 A 5.0893798,4.2204614 0 1 1 346.82263,351.02081 z"
                 transform="matrix(2.4653252,1.1379622,1.6852841,-3.5775187,-1218.3022,1306.9675)" />
              <path
                 sodipodi:type="arc"
                 style="fill:#ffccaa;fill-opacity:1;fill-rule:evenodd;stroke:#ffccaa;stroke-width:0.65383142px;stroke-linecap:butt;stroke-linejoin:miter;stroke-opacity:1"
                 id="path3508"
                 sodipodi:cx="341.73325"
                 sodipodi:cy="351.02081"
                 sodipodi:rx="5.0893798"
                 sodipodi:ry="4.2204614"
                 d="M 346.82263,351.02081 A 5.0893798,4.2204614 0 1 1 336.64387,351.02081 A 5.0893798,4.2204614 0 1 1 346.82263,351.02081 z"
                 transform="matrix(-2.4653252,1.1379624,-1.6852841,-3.5775185,1517.333,1306.7139)" />
              <path
                 sodipodi:type="arc"
                 style="fill:#000000;fill-opacity:1;fill-rule:evenodd;stroke:#000000;stroke-width:0.46867275;stroke-linecap:butt;stroke-linejoin:miter;stroke-miterlimit:4;stroke-dasharray:none;stroke-opacity:1"
                 id="path3598"
                 sodipodi:cx="463.52997"
                 sodipodi:cy="288.64706"
                 sodipodi:rx="0.44670412"
                 sodipodi:ry="0.74450684"
                 d="M 463.97667,288.64706 A 0.44670412,0.74450684 0 1 1 463.08326,288.64706 A 0.44670412,0.74450684 0 1 1 463.97667,288.64706 z"
                 transform="matrix(3.4754092,0,0,2.1646787,-1234.1001,-334.90354)" />
              <path
                 style="fill:#ffb82a;fill-opacity:1;fill-rule:evenodd;stroke:#ffb82a;stroke-width:2.14248681px;stroke-linecap:butt;stroke-linejoin:miter;stroke-opacity:1"
                 d="M 557.82812,271.43419 C 551.6628,279.28114 545.61443,294.09089 548.18267,305.48807 C 550.12937,314.12699 560.7007,318.28304 563.9369,318.21849 C 554.99924,295.79218 559.86438,287.02896 557.82812,271.43419 z"
                 id="path3644"
                 sodipodi:nodetypes="cscc" />
              <path
                 style="fill:#ffb82a;fill-opacity:1;fill-rule:evenodd;stroke:#ffb82a;stroke-width:2.14248681px;stroke-linecap:butt;stroke-linejoin:miter;stroke-opacity:1"
                 d="M 644.45608,270.28694 C 650.62139,278.13389 656.66978,292.94364 654.10153,304.3408 C 652.15484,312.97974 641.58351,317.1358 638.34731,317.07124 C 647.28497,294.64493 642.41983,285.88171 644.45608,270.28694 z"
                 id="path3646"
                 sodipodi:nodetypes="cscc" />
              <path
                 style="fill:#ffb82a;fill-opacity:1;fill-rule:evenodd;stroke:#ffb82a;stroke-width:2.14248681px;stroke-linecap:butt;stroke-linejoin:miter;stroke-opacity:1"
                 d="M 554.25981,290.01908 C 548.0945,297.86603 542.04611,312.67578 544.61435,324.07294 C 546.56106,332.71188 557.13238,336.86794 560.36859,336.80338 C 551.43092,314.37707 556.29606,305.61385 554.25981,290.01908 z"
                 id="path3648"
                 sodipodi:nodetypes="cscc" />
              <path
                 style="fill:#ffb82a;fill-opacity:1;fill-rule:evenodd;stroke:#ffb82a;stroke-width:2.14248681px;stroke-linecap:butt;stroke-linejoin:miter;stroke-opacity:1"
                 d="M 647.8578,290.65561 C 654.02311,298.50255 660.0715,313.3123 657.50326,324.70946 C 655.55655,333.3484 644.98523,337.50446 641.74902,337.43991 C 650.68669,315.01359 645.82156,306.25037 647.8578,290.65561 z"
                 id="path3650"
                 sodipodi:nodetypes="cscc" />
              <path
                 style="fill:#ffb82a;fill-opacity:1;fill-rule:evenodd;stroke:#ffb82a;stroke-width:2.14248681px;stroke-linecap:butt;stroke-linejoin:miter;stroke-opacity:1"
                 d="M 643.64098,265.83129 C 637.49778,273.68698 648.15145,286.96247 644.92703,296.06601 C 641.96855,304.41875 661.5696,311.00224 664.80581,310.93768 C 656.04124,293.72072 659.91629,272.36503 643.64098,265.83129 z"
                 id="path3652"
                 sodipodi:nodetypes="cscc" />
              <path
                 style="fill:#ffb82a;fill-opacity:1;fill-rule:evenodd;stroke:#ffb82a;stroke-width:2.14248681px;stroke-linecap:butt;stroke-linejoin:miter;stroke-opacity:1"
                 d="M 558.82679,264.71651 C 564.96999,272.57221 554.31631,285.84769 557.54073,294.95125 C 560.4992,303.30397 540.89816,309.88746 537.66196,309.82292 C 546.42652,292.60594 542.55147,271.25026 558.82679,264.71651 z"
                 id="path3654"
                 sodipodi:nodetypes="cscc" />
            </g>
          </g>
          <text
             transform="scale(1.1163001,0.8958165)"
             id="text3457"
             y="512.57477"
             x="131.58904"
             style="font-size:186.11056519px;font-style:normal;font-variant:normal;font-weight:bold;font-stretch:normal;fill:#000000;fill-opacity:1;stroke:none;stroke-width:1px;stroke-linecap:butt;stroke-linejoin:miter;stroke-opacity:1;font-family:Arial;-inkscape-font-specification:Sans Bold"
             xml:space="preserve"><tspan
               style="font-size:76.68714905px;font-style:normal;font-variant:normal;font-weight:normal;font-stretch:normal;font-family:Junkyard;-inkscape-font-specification:Junkyard"
               y="512.57477"
               x="131.58904"
               id="tspan3459"
               sodipodi:role="line">ideas4kids.org</tspan></text>
        </g>
      </g>
    </g>
  </g>
</svg>
