<?xml version="1.0" encoding="UTF-8" standalone="no"?>
<!-- Created with Inkscape (http://www.inkscape.org/) -->
<svg
   xmlns:dc="http://purl.org/dc/elements/1.1/"
   xmlns:cc="http://creativecommons.org/ns#"
   xmlns:rdf="http://www.w3.org/1999/02/22-rdf-syntax-ns#"
   xmlns:svg="http://www.w3.org/2000/svg"
   xmlns="http://www.w3.org/2000/svg"
   xmlns:sodipodi="http://sodipodi.sourceforge.net/DTD/sodipodi-0.dtd"
   xmlns:inkscape="http://www.inkscape.org/namespaces/inkscape"
   width="81.737198"
   height="100.63373"
   id="svg2"
   sodipodi:version="0.32"
   inkscape:version="0.46"
   sodipodi:docname="animal.svg"
   inkscape:output_extension="org.inkscape.output.svg.inkscape"
   version="1.0">
  <defs
     id="defs4">
    <inkscape:perspective
       sodipodi:type="inkscape:persp3d"
       inkscape:vp_x="0 : 526.18109 : 1"
       inkscape:vp_y="0 : 1000 : 0"
       inkscape:vp_z="744.09448 : 526.18109 : 1"
       inkscape:persp3d-origin="372.04724 : 350.78739 : 1"
       id="perspective10" />
  </defs>
  <sodipodi:namedview
     id="base"
     pagecolor="#ffffff"
     bordercolor="#666666"
     borderopacity="1.0"
     gridtolerance="10000"
     guidetolerance="10"
     objecttolerance="10"
     inkscape:pageopacity="0.0"
     inkscape:pageshadow="2"
     inkscape:zoom="5.8032235"
     inkscape:cx="40.8686"
     inkscape:cy="50.316861"
     inkscape:document-units="px"
     inkscape:current-layer="g3247"
     showgrid="true"
     inkscape:snap-global="false"
     inkscape:window-width="1429"
     inkscape:window-height="806"
     inkscape:window-x="0"
     inkscape:window-y="38">
    <inkscape:grid
       type="xygrid"
       id="grid2383"
       visible="true"
       enabled="true" />
  </sodipodi:namedview>
  <metadata
     id="metadata7">
    <rdf:RDF>
      <cc:Work
         rdf:about="">
        <dc:format>image/svg+xml</dc:format>
        <dc:type
           rdf:resource="http://purl.org/dc/dcmitype/StillImage" />
      </cc:Work>
    </rdf:RDF>
  </metadata>
  <g
     inkscape:label="Layer 1"
     inkscape:groupmode="layer"
     id="layer1"
     transform="translate(-249.18743,-376.89288)">
    <g
       id="g3247"
       transform="matrix(0.3668004,0,0,0.3668004,183.66336,270.50904)">
      <path
         sodipodi:nodetypes="ccccccss"
         id="path2385"
         d="M 200,312.36218 C 201.22467,299.60911 197.98329,293.32715 205,292.36218 C 211.97511,293.53032 235.55999,298.24593 240,312.36218 C 258.02623,308.41464 271.41808,295.19833 300,312.36218 C 302.37353,300.6318 322.14651,296.07423 335,292.36218 C 340,292.36218 342.2605,284.72732 340,312.36218 C 345.12696,369.54481 318.96198,412.36215 270,412.36218 C 217.90208,412.36222 194.71883,367.35744 200,312.36218 z"
         style="fill:#803300;fill-opacity:1;fill-rule:evenodd;stroke:#803300;stroke-width:2.72627831px;stroke-linecap:butt;stroke-linejoin:miter;stroke-opacity:1" />
      <path
         id="path2387"
         d="M 260,352.36218 L 280,352.36218 L 270,372.36218 L 260,352.36218 z"
         style="fill:#000000;fill-opacity:1;fill-rule:evenodd;stroke:#000000;stroke-width:2.72627831px;stroke-linecap:butt;stroke-linejoin:miter;stroke-opacity:1" />
      <path
         sodipodi:nodetypes="cccc"
         id="path2389"
         d="M 269.97598,369.52313 L 270.01669,391.9118 C 263.36256,398.81359 256.68985,395.49776 250.01673,391.95737 L 250.01673,391.95737"
         style="fill:none;fill-opacity:0.75;fill-rule:evenodd;stroke:#000000;stroke-width:5.45255661;stroke-linecap:butt;stroke-linejoin:miter;stroke-miterlimit:4;stroke-dasharray:none;stroke-opacity:1" />
      <path
         sodipodi:nodetypes="cc"
         id="path2391"
         d="M 270,392.36218 C 277.49358,396.49675 284.40709,397.73096 290,392.36218"
         style="fill:none;fill-opacity:0.75;fill-rule:evenodd;stroke:#000000;stroke-width:5.45255661;stroke-linecap:butt;stroke-linejoin:miter;stroke-miterlimit:4;stroke-dasharray:none;stroke-opacity:1" />
      <path
         sodipodi:nodetypes="ccc"
         id="path2393"
         d="M 280,342.36218 C 288.20618,350.13541 296.22712,358.71134 310,342.36218 C 301.49249,331.91474 292.28636,326.35763 280,342.36218 z"
         style="fill:#ffffff;fill-opacity:1;fill-rule:evenodd;stroke:#000000;stroke-width:2.72627831px;stroke-linecap:butt;stroke-linejoin:miter;stroke-opacity:1" />
      <path
         sodipodi:nodetypes="ccc"
         id="path2395"
         d="M 260,342.36218 C 250,329.01403 240,330.94465 230,342.36218 C 240,354.65798 250,356.73711 260,342.36218 z"
         style="fill:#ffffff;fill-opacity:1;fill-rule:evenodd;stroke:#000000;stroke-width:2.72627831px;stroke-linecap:butt;stroke-linejoin:miter;stroke-opacity:1" />
      <path
         sodipodi:nodetypes="cc"
         id="path2397"
         d="M 290,362.36218 C 314.59082,352.74144 337.26481,352.70479 360,352.36218"
         style="fill:none;fill-opacity:0.75;fill-rule:evenodd;stroke:#000000;stroke-width:2.72627831px;stroke-linecap:butt;stroke-linejoin:miter;stroke-opacity:1" />
      <path
         sodipodi:nodetypes="cc"
         id="path2399"
         d="M 290,372.36218 C 314.59082,362.74144 337.26481,362.70479 360,362.36218"
         style="fill:none;fill-opacity:0.75;fill-rule:evenodd;stroke:#000000;stroke-width:2.72627831px;stroke-linecap:butt;stroke-linejoin:miter;stroke-opacity:1" />
      <path
         sodipodi:nodetypes="cc"
         id="path2401"
         d="M 250,362.36218 C 225.40918,352.74144 202.73519,352.70479 180,352.36218"
         style="fill:none;fill-opacity:0.75;fill-rule:evenodd;stroke:#000000;stroke-width:2.72627831px;stroke-linecap:butt;stroke-linejoin:miter;stroke-opacity:1" />
      <path
         sodipodi:nodetypes="cc"
         id="path2403"
         d="M 250,372.36218 C 225.40918,362.74144 202.73519,362.70479 180,362.36218"
         style="fill:none;fill-opacity:0.75;fill-rule:evenodd;stroke:#000000;stroke-width:2.72627831px;stroke-linecap:butt;stroke-linejoin:miter;stroke-opacity:1" />
      <path
         transform="matrix(1.55,0,0,1,-134.75,0)"
         d="M 250,342.36218 A 5,10 0 1 1 240,342.36218 A 5,10 0 1 1 250,342.36218 z"
         sodipodi:ry="10"
         sodipodi:rx="5"
         sodipodi:cy="342.36218"
         sodipodi:cx="245"
         id="path2405"
         style="fill:#14c718;fill-opacity:1;fill-rule:evenodd;stroke:#000000;stroke-width:2.18979931px;stroke-linecap:butt;stroke-linejoin:miter;stroke-opacity:1"
         sodipodi:type="arc" />
      <path
         transform="matrix(1.55,0,0,1,-84.75,0)"
         d="M 250,342.36218 A 5,10 0 1 1 240,342.36218 A 5,10 0 1 1 250,342.36218 z"
         sodipodi:ry="10"
         sodipodi:rx="5"
         sodipodi:cy="342.36218"
         sodipodi:cx="245"
         id="path3181"
         style="fill:#14c718;fill-opacity:1;fill-rule:evenodd;stroke:#000000;stroke-width:2.18979931px;stroke-linecap:butt;stroke-linejoin:miter;stroke-opacity:1"
         sodipodi:type="arc" />
      <path
         transform="matrix(0.3107398,0,0,1,168.63384,0)"
         d="M 250,342.36218 A 5,10 0 1 1 240,342.36218 A 5,10 0 1 1 250,342.36218 z"
         sodipodi:ry="10"
         sodipodi:rx="5"
         sodipodi:cy="342.36218"
         sodipodi:cx="245"
         id="path3183"
         style="fill:#000000;fill-opacity:1;fill-rule:evenodd;stroke:#000000;stroke-width:4.89070749px;stroke-linecap:butt;stroke-linejoin:miter;stroke-opacity:1"
         sodipodi:type="arc" />
      <path
         transform="matrix(0.3107398,0,0,1,219.10363,0)"
         d="M 250,342.36218 A 5,10 0 1 1 240,342.36218 A 5,10 0 1 1 250,342.36218 z"
         sodipodi:ry="10"
         sodipodi:rx="5"
         sodipodi:cy="342.36218"
         sodipodi:cx="245"
         id="path3185"
         style="fill:#000000;fill-opacity:1;fill-rule:evenodd;stroke:#000000;stroke-width:4.89070797px;stroke-linecap:butt;stroke-linejoin:miter;stroke-opacity:1"
         sodipodi:type="arc" />
      <path
         sodipodi:nodetypes="csss"
         id="path3193"
         d="M 198.2064,543.29584 C 198.2064,543.29584 180,402.36218 270,402.36218 C 360,402.36218 348.32923,545.16317 348.32923,545.16317 C 328.32923,555.16317 198.2064,553.29584 198.2064,543.29584 z"
         style="fill:#803300;fill-opacity:1;fill-rule:evenodd;stroke:#803300;stroke-width:2.72627831px;stroke-linecap:butt;stroke-linejoin:miter;stroke-opacity:1" />
      <path
         sodipodi:nodetypes="csscsscc"
         id="path3195"
         d="M 340,502.36218 C 353.97838,476.59858 389.2882,477.8014 390,442.36218 C 390.22779,431.0208 384.44259,420.51394 370,412.36218 C 362.46572,408.10964 362.70705,417.27527 360,422.36218 C 355.90688,415.44637 350.71649,400.11319 370,402.36218 C 382.65286,403.83785 401.74823,413.06957 400,442.36218 C 398.00438,475.79979 358.32923,540.63 348.32923,545.63 L 340,502.36218 z"
         style="fill:#803300;fill-opacity:1;fill-rule:evenodd;stroke:#803300;stroke-width:2.72627831px;stroke-linecap:butt;stroke-linejoin:miter;stroke-opacity:1" />
      <path
         sodipodi:nodetypes="css"
         id="path3197"
         d="M 197.28,547.76029 C 203.68251,572.05424 250.577,563.2995 246.66125,547.76029 C 239.88585,520.87286 193.45494,533.24624 197.28,547.76029 z"
         style="fill:#803300;fill-opacity:1;fill-rule:evenodd;stroke:#803300;stroke-width:2.72627831px;stroke-linecap:butt;stroke-linejoin:miter;stroke-opacity:1" />
      <path
         sodipodi:nodetypes="css"
         id="path3199"
         d="M 300.1694,547.83729 C 306.51265,572.24923 352.97308,563.45198 349.09358,547.83729 C 342.38089,520.81926 296.37973,533.25274 300.1694,547.83729 z"
         style="fill:#803300;fill-opacity:1;fill-rule:evenodd;stroke:#803300;stroke-width:2.72627831px;stroke-linecap:butt;stroke-linejoin:miter;stroke-opacity:1" />
      <path
         sodipodi:nodetypes="cc"
         id="path3203"
         d="M 225,562.36218 C 225.4352,556.78895 226.09759,551.15375 220,547.36218"
         style="fill:none;fill-opacity:0.75;fill-rule:evenodd;stroke:#000000;stroke-width:2.72627831px;stroke-linecap:butt;stroke-linejoin:miter;stroke-opacity:1" />
      <path
         sodipodi:nodetypes="cc"
         id="path3207"
         d="M 235.23342,560.96169 C 235.66862,555.38846 236.33101,549.75326 230.23342,545.96169"
         style="fill:none;fill-opacity:0.75;fill-rule:evenodd;stroke:#000000;stroke-width:2.72627831px;stroke-linecap:butt;stroke-linejoin:miter;stroke-opacity:1" />
      <path
         sodipodi:nodetypes="cc"
         id="path3209"
         d="M 215,562.36218 C 215.4352,556.78895 216.09759,551.15375 210,547.36218"
         style="fill:none;fill-opacity:0.75;fill-rule:evenodd;stroke:#000000;stroke-width:2.72627831px;stroke-linecap:butt;stroke-linejoin:miter;stroke-opacity:1" />
      <path
         sodipodi:nodetypes="cc"
         id="path3211"
         d="M 315.26571,562.36218 C 314.83051,556.78895 314.16812,551.15375 320.26571,547.36218"
         style="fill:none;fill-opacity:0.75;fill-rule:evenodd;stroke:#000000;stroke-width:2.72627831px;stroke-linecap:butt;stroke-linejoin:miter;stroke-opacity:1" />
      <path
         sodipodi:nodetypes="cc"
         id="path3217"
         d="M 324.10171,562.68071 C 323.66651,557.10748 323.00412,551.47228 329.10171,547.68071"
         style="fill:none;fill-opacity:0.75;fill-rule:evenodd;stroke:#000000;stroke-width:2.72627831px;stroke-linecap:butt;stroke-linejoin:miter;stroke-opacity:1" />
      <path
         sodipodi:nodetypes="cc"
         id="path3219"
         d="M 333.2049,562.21388 C 332.7697,556.64065 332.10731,551.00545 338.2049,547.21388"
         style="fill:none;fill-opacity:0.75;fill-rule:evenodd;stroke:#000000;stroke-width:2.72627831px;stroke-linecap:butt;stroke-linejoin:miter;stroke-opacity:1" />
      <path
         sodipodi:nodetypes="ccccc"
         id="path3223"
         d="M 239.61456,408.6397 C 260.70366,416.38605 281.12326,418.12713 300.87337,408.6397 L 307.90307,413.73478 C 286.04531,425.25665 260.61899,425.62396 232.08274,413.73478 L 239.61456,408.6397 z"
         style="fill:#2021d3;fill-opacity:1;fill-rule:evenodd;stroke:#2021d3;stroke-width:2.72627831px;stroke-linecap:butt;stroke-linejoin:miter;stroke-opacity:1" />
      <path
         transform="translate(-0.9336619,0)"
         d="M 278.69808,424.94141 A 7.0024643,6.5356331 0 1 1 264.69315,424.94141 A 7.0024643,6.5356331 0 1 1 278.69808,424.94141 z"
         sodipodi:ry="6.5356331"
         sodipodi:rx="7.0024643"
         sodipodi:cy="424.94141"
         sodipodi:cx="271.69562"
         id="path3225"
         style="fill:#e4ec25;fill-opacity:1;fill-rule:evenodd;stroke:#e4ec25;stroke-width:2.72627831px;stroke-linecap:butt;stroke-linejoin:miter;stroke-opacity:1"
         sodipodi:type="arc" />
    </g>
  </g>
</svg>
