<?xml version="1.0" encoding="UTF-8" standalone="no"?>
<!-- Created with Inkscape (http://www.inkscape.org/) -->
<svg
   xmlns:dc="http://purl.org/dc/elements/1.1/"
   xmlns:cc="http://creativecommons.org/ns#"
   xmlns:rdf="http://www.w3.org/1999/02/22-rdf-syntax-ns#"
   xmlns:svg="http://www.w3.org/2000/svg"
   xmlns="http://www.w3.org/2000/svg"
   xmlns:sodipodi="http://sodipodi.sourceforge.net/DTD/sodipodi-0.dtd"
   xmlns:inkscape="http://www.inkscape.org/namespaces/inkscape"
   width="72.529526"
   height="99.823158"
   id="svg2"
   sodipodi:version="0.32"
   inkscape:version="0.46"
   version="1.0"
   sodipodi:docname="christmas.svg"
   inkscape:output_extension="org.inkscape.output.svg.inkscape"
   inkscape:export-filename="/media/Shakti/louise/Documents/Ideas4kids.org/website/icon/christmas.png"
   inkscape:export-xdpi="90"
   inkscape:export-ydpi="90">
  <defs
     id="defs4">
    <inkscape:perspective
       sodipodi:type="inkscape:persp3d"
       inkscape:vp_x="0 : 526.18109 : 1"
       inkscape:vp_y="0 : 1000 : 0"
       inkscape:vp_z="744.09448 : 526.18109 : 1"
       inkscape:persp3d-origin="372.04724 : 350.78739 : 1"
       id="perspective10" />
  </defs>
  <sodipodi:namedview
     id="base"
     pagecolor="#ffffff"
     bordercolor="#666666"
     borderopacity="1.0"
     gridtolerance="10000"
     guidetolerance="10"
     objecttolerance="10"
     inkscape:pageopacity="0.0"
     inkscape:pageshadow="2"
     inkscape:zoom="3.3636837"
     inkscape:cx="125.05006"
     inkscape:cy="36.245403"
     inkscape:document-units="px"
     inkscape:current-layer="g3194"
     showgrid="true"
     inkscape:snap-global="false"
     inkscape:window-width="1429"
     inkscape:window-height="871"
     inkscape:window-x="0"
     inkscape:window-y="0">
    <inkscape:grid
       type="xygrid"
       id="grid2383"
       visible="true"
       enabled="true" />
  </sodipodi:namedview>
  <metadata
     id="metadata7">
    <rdf:RDF>
      <cc:Work
         rdf:about="">
        <dc:format>image/svg+xml</dc:format>
        <dc:type
           rdf:resource="http://purl.org/dc/dcmitype/StillImage" />
      </cc:Work>
    </rdf:RDF>
  </metadata>
  <g
     inkscape:label="Layer 1"
     inkscape:groupmode="layer"
     id="layer1"
     transform="translate(-163.09536,-723.66115)">
    <g
       id="g3181"
       transform="matrix(0.5182883,0,0,0.5182883,96.131618,368.58476)">
      <g
         id="g3194"
         transform="matrix(-1.1774687,0,0,1.1774687,433.69075,-138.67322)">
        <path
           sodipodi:type="arc"
           style="fill:#f7dbe0;fill-opacity:1;fill-rule:evenodd;stroke:#f7dbe0;stroke-width:1.63862371px;stroke-linecap:butt;stroke-linejoin:miter;stroke-opacity:1"
           id="path2385"
           sodipodi:cx="200"
           sodipodi:cy="787.36218"
           sodipodi:rx="55"
           sodipodi:ry="55"
           d="M 255,787.36218 A 55,55 0 1 1 145,787.36218 A 55,55 0 1 1 255,787.36218 z" />
        <path
           style="fill:#ff0000;fill-opacity:1;fill-rule:evenodd;stroke:#000000;stroke-width:1.63862371px;stroke-linecap:butt;stroke-linejoin:miter;stroke-opacity:1"
           d="M 149.71743,760.47891 L 244.83755,763.34694 C 253.55862,725.63377 176.75765,671.47338 151.48218,719.07294 C 161.12562,714.79243 170.03002,717.70066 174.3502,717.76329 C 153.71741,737.48391 160.64569,733.86104 149.71743,760.47891 z"
           id="path3157"
           sodipodi:nodetypes="ccccc" />
        <path
           style="fill:#ffffff;fill-opacity:1;fill-rule:evenodd;stroke:#000000;stroke-width:1.63862371px;stroke-linecap:butt;stroke-linejoin:miter;stroke-opacity:1"
           d="M 150,762.36218 C 139.19311,773.08402 138.74475,780.97517 144.0257,800.90073 C 149.36886,821.06099 160.98946,862.58923 198.89722,862.84933 C 233.27843,863.08524 244.01269,835.14591 255,802.36218 C 258.7196,791.26371 260.1094,780.38592 250,762.36218 L 240,762.36218 C 245.53815,770.85615 252.32146,781.80986 245,802.36218 C 240.89258,813.89228 221.30074,809.32019 214.82445,806.39979 C 206.50821,802.64968 209.85795,812.88802 200,812.36218 C 192.23701,811.94809 192.14472,800.65036 185.09089,807.27753 C 179.13355,812.87453 159.54087,810.58536 155,802.36218 C 147.67425,789.09576 146.58239,773.69659 160,762.36218 L 150,762.36218 z"
           id="path3165"
           sodipodi:nodetypes="csssccssssscc" />
        <path
           style="fill:#ffffff;fill-opacity:1;fill-rule:evenodd;stroke:#000000;stroke-width:1.63862371px;stroke-linecap:butt;stroke-linejoin:miter;stroke-opacity:1"
           d="M 155,752.36218 C 144.7111,753.38757 146.56877,761.98081 144.82445,767.88882 L 253.06897,767.53773 C 251.90314,762.45426 253.20921,756.27176 245,752.36218 L 155,752.36218 z"
           id="path3161"
           sodipodi:nodetypes="ccccc" />
        <path
           style="fill:none;fill-opacity:0.75;fill-rule:evenodd;stroke:#ff0000;stroke-width:2.45793557;stroke-linecap:butt;stroke-linejoin:miter;stroke-miterlimit:4;stroke-dasharray:none;stroke-opacity:1"
           d="M 180,822.36218 C 180,822.36218 191.25357,832.36218 200,832.36218 C 208.74643,832.36218 220,822.36218 220,822.36218"
           id="path3167"
           sodipodi:nodetypes="csc" />
        <path
           sodipodi:type="arc"
           style="fill:#ffffff;fill-opacity:1;fill-rule:evenodd;stroke:#000000;stroke-width:1.63862371px;stroke-linecap:butt;stroke-linejoin:miter;stroke-opacity:1"
           id="path3169"
           sodipodi:cx="172.5"
           sodipodi:cy="779.86218"
           sodipodi:rx="7.5"
           sodipodi:ry="7.5"
           d="M 180,779.86218 A 7.5,7.5 0 1 1 165,779.86218 A 7.5,7.5 0 1 1 180,779.86218 z"
           transform="translate(7.5,5)" />
        <path
           sodipodi:type="arc"
           style="fill:#ffffff;fill-opacity:1;fill-rule:evenodd;stroke:#000000;stroke-width:1.63862371px;stroke-linecap:butt;stroke-linejoin:miter;stroke-opacity:1"
           id="path3171"
           sodipodi:cx="172.5"
           sodipodi:cy="779.86218"
           sodipodi:rx="7.5"
           sodipodi:ry="7.5"
           d="M 180,779.86218 A 7.5,7.5 0 1 1 165,779.86218 A 7.5,7.5 0 1 1 180,779.86218 z"
           transform="translate(47.5,5)" />
        <path
           sodipodi:type="arc"
           style="fill:#000000;fill-opacity:1;fill-rule:evenodd;stroke:#000000;stroke-width:2.04120445px;stroke-linecap:butt;stroke-linejoin:miter;stroke-opacity:1"
           id="path3173"
           sodipodi:cx="180"
           sodipodi:cy="789.86218"
           sodipodi:rx="5"
           sodipodi:ry="7.5"
           d="M 185,789.86218 A 5,7.5 0 1 1 175,789.86218 A 5,7.5 0 1 1 185,789.86218 z"
           transform="matrix(1,0,0,0.6444444,0,278.17322)" />
        <path
           sodipodi:type="arc"
           style="fill:#000000;fill-opacity:1;fill-rule:evenodd;stroke:#000000;stroke-width:2.04120445px;stroke-linecap:butt;stroke-linejoin:miter;stroke-opacity:1"
           id="path3175"
           sodipodi:cx="180"
           sodipodi:cy="789.86218"
           sodipodi:rx="5"
           sodipodi:ry="7.5"
           d="M 185,789.86218 A 5,7.5 0 1 1 175,789.86218 A 5,7.5 0 1 1 185,789.86218 z"
           transform="matrix(1,0,0,0.6444444,40,278.17326)" />
        <path
           style="fill:none;fill-opacity:0.75;fill-rule:evenodd;stroke:#ff0000;stroke-width:2.45793557;stroke-linecap:butt;stroke-linejoin:miter;stroke-miterlimit:4;stroke-dasharray:none;stroke-opacity:1"
           d="M 180,822.36218 C 195.45231,828.97513 208.27754,827.40601 220,822.36218"
           id="path3177"
           sodipodi:nodetypes="cc" />
        <path
           sodipodi:type="arc"
           style="fill:#ffffff;fill-opacity:1;fill-rule:evenodd;stroke:#000000;stroke-width:1.30167997px;stroke-linecap:butt;stroke-linejoin:miter;stroke-opacity:1"
           id="path3179"
           sodipodi:cx="174.21376"
           sodipodi:cy="686.39435"
           sodipodi:rx="6.5404487"
           sodipodi:ry="6.5404487"
           d="M 180.75421,686.39435 A 6.5404487,6.5404487 0 1 1 167.67331,686.39435 A 6.5404487,6.5404487 0 1 1 180.75421,686.39435 z"
           transform="matrix(1.3409091,0,0,1.1818182,-84.267685,-88.427456)" />
      </g>
    </g>
  </g>
</svg>
