<?xml version="1.0" encoding="UTF-8" standalone="no"?>
<!-- Created with Inkscape (http://www.inkscape.org/) -->
<svg
   xmlns:dc="http://purl.org/dc/elements/1.1/"
   xmlns:cc="http://creativecommons.org/ns#"
   xmlns:rdf="http://www.w3.org/1999/02/22-rdf-syntax-ns#"
   xmlns:svg="http://www.w3.org/2000/svg"
   xmlns="http://www.w3.org/2000/svg"
   xmlns:sodipodi="http://sodipodi.sourceforge.net/DTD/sodipodi-0.dtd"
   xmlns:inkscape="http://www.inkscape.org/namespaces/inkscape"
   width="76.652229"
   height="100.16563"
   id="svg2"
   sodipodi:version="0.32"
   inkscape:version="0.46"
   version="1.0"
   sodipodi:docname="halloween.svg"
   inkscape:output_extension="org.inkscape.output.svg.inkscape"
   inkscape:export-filename="/media/Shakti/louise/Documents/Ideas4kids.org/website/icon/halloween.png"
   inkscape:export-xdpi="90"
   inkscape:export-ydpi="90">
  <defs
     id="defs4">
    <inkscape:perspective
       sodipodi:type="inkscape:persp3d"
       inkscape:vp_x="0 : 526.18109 : 1"
       inkscape:vp_y="0 : 1000 : 0"
       inkscape:vp_z="744.09448 : 526.18109 : 1"
       inkscape:persp3d-origin="372.04724 : 350.78739 : 1"
       id="perspective10" />
  </defs>
  <sodipodi:namedview
     id="base"
     pagecolor="#ffffff"
     bordercolor="#666666"
     borderopacity="1.0"
     gridtolerance="10000"
     guidetolerance="10"
     objecttolerance="10"
     inkscape:pageopacity="0.0"
     inkscape:pageshadow="2"
     inkscape:zoom="6.4792681"
     inkscape:cx="38.326119"
     inkscape:cy="50.082812"
     inkscape:document-units="px"
     inkscape:current-layer="g3420"
     showgrid="true"
     inkscape:snap-global="false"
     inkscape:window-width="1429"
     inkscape:window-height="871"
     inkscape:window-x="0"
     inkscape:window-y="0">
    <inkscape:grid
       type="xygrid"
       id="grid2383"
       visible="true"
       enabled="true" />
  </sodipodi:namedview>
  <metadata
     id="metadata7">
    <rdf:RDF>
      <cc:Work
         rdf:about="">
        <dc:format>image/svg+xml</dc:format>
        <dc:type
           rdf:resource="http://purl.org/dc/dcmitype/StillImage" />
      </cc:Work>
    </rdf:RDF>
  </metadata>
  <g
     inkscape:label="Layer 1"
     inkscape:groupmode="layer"
     id="layer1"
     transform="translate(-266.31044,-694.7662)">
    <g
       id="g3181"
       transform="matrix(0.5182883,0,0,0.5182883,96.131618,368.58476)">
      <g
         id="g4672"
         transform="matrix(0.834213,0,0,0.834213,66.621517,120.35717)">
        <g
           id="g4949"
           transform="matrix(1.0060323,0,0,0.9983464,-2.4348719,1.2004729)"
           inkscape:export-filename="/media/Shakti/louise/Documents/Ideas4kids.org/website/icon/halloween.png"
           inkscape:export-xdpi="90"
           inkscape:export-ydpi="90">
          <g
             id="g3420"
             transform="matrix(0.5139558,0,0,0.5139558,193.06164,343.76528)">
            <path
               style="fill:#008000;fill-opacity:1;fill-rule:evenodd;stroke:#008000;stroke-width:4.49034023px;stroke-linecap:butt;stroke-linejoin:miter;stroke-opacity:1"
               d="M 278.98756,718.06403 C 271.08234,732.65465 256.90372,737.83515 259.85465,768.70997 C 265.18076,786.79135 258.64072,807.63764 251.97639,813.72858 C 235.33048,820.85652 244.47621,827.98447 244.09813,835.11242 C 236.46637,846.71649 253.7353,852.27115 259.85465,866.62545 C 263.25845,875.08014 265.98001,883.19371 257.60372,885.75836 C 251.55555,906.43755 261.61573,911.00844 266.60744,920.64778 C 277.23149,933.37101 284.78191,927.65243 292.49314,922.89872 C 285.61335,928.52604 283.03809,934.15336 296.995,939.78068 C 313.46327,940.8483 319.66811,926.5208 330.75896,919.5223 L 532.21725,924.02419 C 541.36193,932.37306 549.69386,935.84539 555.85202,926.27509 L 562.60481,910.51861 L 573.85946,895.88755 C 578.56037,886.88383 581.92888,875.79647 562.63016,866.79275 C 554.04831,856.39788 563.11135,849.75948 563.58833,832.95781 C 564.09994,814.93629 537.83279,817.25682 552.09541,785.59194 C 556.32093,776.21073 553.49941,768.14035 551.11189,756.92807 C 541.9307,747.47012 532.17596,740.18631 537.7736,724.81682 C 538.50557,703.45132 516.43642,699.33059 506.33155,688.80193 L 278.98756,718.06403 z"
               id="path4670"
               sodipodi:nodetypes="cccccccccccccccsscccc" />
            <path
               transform="matrix(5.6389324,0,0,5.8282774,199.34391,547.49609)"
               d="M 51.714973,38.158489 A 15.136089,17.118196 0 1 1 21.442795,38.158489 A 15.136089,17.118196 0 1 1 51.714973,38.158489 z"
               sodipodi:ry="17.118196"
               sodipodi:rx="15.136089"
               sodipodi:cy="38.158489"
               sodipodi:cx="36.578884"
               id="path3305"
               style="fill:#49d03f;fill-opacity:1;fill-rule:evenodd;stroke:#49d03f;stroke-width:0.78326857px;stroke-linecap:butt;stroke-linejoin:miter;stroke-opacity:1"
               sodipodi:type="arc" />
            <path
               sodipodi:nodetypes="cccccccc"
               id="path3315"
               d="M 242.61012,725.01481 C 339.40685,715.28764 322.15175,748.34741 559.6996,683.11275 C 521.25403,670.00202 501.49418,657.40593 458.75591,655.02691 C 449.61556,615.1764 409.33013,575.85964 389.57726,538.13164 C 395.90404,532.34829 407.61525,537.33382 420.58478,544.83597 C 411.06299,529.81119 397.63866,524.54279 383.71097,520.53278 C 349.72763,566.83144 336.24989,621.33236 324.21005,676.40843 C 292.74312,686.57348 269.61379,703.69163 242.61012,725.01481 z"
               style="fill:#000000;fill-opacity:1;fill-rule:evenodd;stroke:#000000;stroke-width:4.49034023px;stroke-linecap:butt;stroke-linejoin:miter;stroke-opacity:1" />
            <g
               transform="translate(6.2853085,0.4190206)"
               id="g3377">
              <path
                 style="fill:#ffffff;fill-opacity:1;fill-rule:evenodd;stroke:#000000;stroke-width:2.32729077px;stroke-linecap:butt;stroke-linejoin:miter;stroke-opacity:1"
                 d="M 14.333448,51.063178 C 20.270187,55.852296 25.915367,55.684899 31.272978,50.628831 C 21.029668,45.758923 18.582198,49.393566 14.333448,51.063178 z"
                 id="path3371"
                 transform="matrix(1.9294281,0,0,1.9294281,319.1818,669.23218)"
                 sodipodi:nodetypes="ccc" />
              <path
                 sodipodi:type="arc"
                 style="fill:#ff0000;fill-opacity:0.75;fill-rule:evenodd;stroke:#000000;stroke-width:2.32729077px;stroke-linecap:butt;stroke-linejoin:miter;stroke-opacity:1"
                 id="path3373"
                 sodipodi:cx="22.803213"
                 sodipodi:cy="53.017738"
                 sodipodi:rx="2.3889079"
                 sodipodi:ry="2.1717346"
                 d="M 25.192121,53.017738 A 2.3889079,2.1717346 0 1 1 20.414305,53.017738 A 2.3889079,2.1717346 0 1 1 25.192121,53.017738 z"
                 transform="matrix(1.9294281,0,0,1.9294281,319.1818,667.5561)" />
              <path
                 style="fill:none;fill-opacity:0.75;fill-rule:evenodd;stroke:#000000;stroke-width:2.32729077px;stroke-linecap:butt;stroke-linejoin:miter;stroke-opacity:1"
                 d="M 13.030407,46.068188 C 13.641746,42.928164 10.171827,37.590539 32.358845,46.068188"
                 id="path3375"
                 transform="matrix(1.9294281,0,0,1.9294281,319.1818,669.23218)"
                 sodipodi:nodetypes="cc" />
            </g>
            <g
               id="g3382"
               transform="matrix(-1,0,0,1,797.56278,-0.2120526)">
              <path
                 style="fill:#ffffff;fill-opacity:1;fill-rule:evenodd;stroke:#000000;stroke-width:2.32729077px;stroke-linecap:butt;stroke-linejoin:miter;stroke-opacity:1"
                 d="M 14.333448,51.063178 C 20.270187,55.852296 25.915367,55.684899 31.272978,50.628831 C 21.029668,45.758923 18.582198,49.393566 14.333448,51.063178 z"
                 id="path3384"
                 transform="matrix(1.9294281,0,0,1.9294281,319.1818,669.23218)"
                 sodipodi:nodetypes="ccc" />
              <path
                 sodipodi:type="arc"
                 style="fill:#ff0000;fill-opacity:0.75;fill-rule:evenodd;stroke:#000000;stroke-width:2.32729077px;stroke-linecap:butt;stroke-linejoin:miter;stroke-opacity:1"
                 id="path3386"
                 sodipodi:cx="22.803213"
                 sodipodi:cy="53.017738"
                 sodipodi:rx="2.3889079"
                 sodipodi:ry="2.1717346"
                 d="M 25.192121,53.017738 A 2.3889079,2.1717346 0 1 1 20.414305,53.017738 A 2.3889079,2.1717346 0 1 1 25.192121,53.017738 z"
                 transform="matrix(1.9294281,0,0,1.9294281,319.1818,667.5561)" />
              <path
                 style="fill:none;fill-opacity:0.75;fill-rule:evenodd;stroke:#000000;stroke-width:2.32729077px;stroke-linecap:butt;stroke-linejoin:miter;stroke-opacity:1"
                 d="M 13.030407,46.068188 C 13.641746,42.928164 10.171827,37.590539 32.358845,46.068188"
                 id="path3388"
                 transform="matrix(1.9294281,0,0,1.9294281,319.1818,669.23218)"
                 sodipodi:nodetypes="cc" />
            </g>
            <path
               id="path3390"
               d="M 402.14787,759.79352 C 402.01123,761.50153 402.14787,763.48791 402.14787,766.07883 C 402.14787,768.3136 402.14787,770.54838 402.14787,772.78316 C 402.14787,775.40087 401.67875,776.80484 401.30983,778.64944 C 400.97796,780.3088 399.13846,781.65886 398.79571,782.00161 C 398.39354,782.40378 397.55923,785.31261 397.11963,786.19182 C 396.19641,788.03824 395.6336,787.35385 393.76746,788.28692 C 392.54236,788.89947 390.80828,789.65524 389.57726,789.963 C 387.61681,790.45311 385.96422,790.65675 383.71097,791.22006 C 381.60118,791.74751 376.29132,794.44951 375.74958,794.99125 C 374.50955,796.23127 373.8957,797.86096 373.23545,799.18145 C 372.36731,800.91775 372.07142,801.74249 371.55937,803.79068 C 371.07331,805.73494 372.37489,808.30983 372.81643,810.07599 C 372.88566,810.3529 374.5641,808.53259 374.91154,807.14284 C 375.47751,804.87896 376.10373,804.45164 377.42566,803.79068 C 379.03534,802.98584 379.41079,802.95264 381.19685,802.95264 C 382.58593,802.95264 384.47856,801.69557 385.80607,801.69557 C 387.19504,801.69557 389.74282,801.69557 391.67236,801.69557 C 394.13681,801.69557 395.17712,801.34316 397.11963,800.85754 C 398.98565,800.39103 400.38393,799.43489 401.72885,798.76243 C 403.28411,797.9848 403.02573,796.62751 404.24298,795.41027 C 405.57157,794.08167 405.98387,793.05592 406.33808,791.63908 C 406.59151,790.62536 408.25805,788.46205 408.8522,787.8679 C 410.11383,786.60627 412.83143,788.23344 413.46143,788.70594"
               style="fill:none;fill-opacity:0.75;fill-rule:evenodd;stroke:#035a03;stroke-width:4.49034023px;stroke-linecap:butt;stroke-linejoin:miter;stroke-opacity:1" />
            <path
               sodipodi:nodetypes="ccsc"
               id="path3392"
               d="M 380.77782,822.22758 C 398.56191,823.99173 415.64904,822.27113 432.31735,818.4564 C 429.85744,820.94199 429.47773,832.87402 407.17612,833.54114 C 393.71388,833.94385 382.69734,824.21228 380.77782,822.22758 z"
               style="fill:#000000;fill-opacity:1;fill-rule:evenodd;stroke:#000000;stroke-width:4.49034023px;stroke-linecap:butt;stroke-linejoin:miter;stroke-opacity:1" />
            <path
               sodipodi:nodetypes="ccccc"
               id="path3394"
               d="M 410.52828,822.01807 L 411.36632,827.04632 L 418.07065,826.20828 L 418.07065,821.18003 L 410.52828,822.01807 z"
               style="fill:#dadada;fill-opacity:1;fill-rule:evenodd;stroke:#dadada;stroke-width:4.49034023px;stroke-linecap:butt;stroke-linejoin:miter;stroke-opacity:1" />
            <path
               id="path3398"
               d="M 420.0133,544.44097 C 425.21926,567.57855 431.43268,568.27424 431.43268,568.27424"
               style="fill:none;fill-opacity:0.75;fill-rule:evenodd;stroke:#000000;stroke-width:0.89806807;stroke-linecap:butt;stroke-linejoin:miter;stroke-miterlimit:4;stroke-dasharray:none;stroke-opacity:1"
               sodipodi:nodetypes="cc" />
            <g
               transform="matrix(1.3548799,0,0,1.5840525,-146.34219,-332.01852)"
               id="g4885">
              <path
                 style="fill:#000000;fill-opacity:1;fill-rule:evenodd;stroke:#000000;stroke-width:0.1362223;stroke-linecap:butt;stroke-linejoin:miter;stroke-miterlimit:4;stroke-dasharray:none;stroke-opacity:1"
                 d="M 43.510194,11.212934 C 43.438453,10.880772 42.857874,10.668801 42.211558,10.803682 C 41.903194,10.868035 41.684857,10.826915 41.594204,11.189528 C 41.507567,11.536077 41.616383,11.67738 42.134388,11.806882 C 42.577783,11.91773 42.860019,11.868497 43.137588,11.729712 C 43.455768,11.570622 43.652522,11.70588 43.523434,11.189528"
                 id="path4867"
                 transform="matrix(4.5001384,0,0,4.5001384,234.80368,518.28272)"
                 sodipodi:nodetypes="csssss" />
              <path
                 style="fill:none;fill-opacity:0.75;fill-rule:evenodd;stroke:#000000;stroke-width:0.1362223;stroke-linecap:butt;stroke-linejoin:miter;stroke-miterlimit:4;stroke-dasharray:none;stroke-opacity:1"
                 d="M 43.523434,11.189528 C 43.770033,11.189528 44.014354,10.614894 44.063619,10.417836 C 44.139002,10.116303 44.610947,10.728299 44.91248,10.803682 C 45.471632,10.94347 45.478643,10.797187 45.761341,10.726513 C 45.811251,10.714035 45.864234,10.726513 45.91568,10.726513"
                 id="path4869"
                 transform="matrix(4.5001384,0,0,4.5001384,234.80368,518.28272)" />
              <path
                 style="fill:none;fill-opacity:0.75;fill-rule:evenodd;stroke:#000000;stroke-width:0.1362223;stroke-linecap:butt;stroke-linejoin:miter;stroke-miterlimit:4;stroke-dasharray:none;stroke-opacity:1"
                 d="M 41.748542,10.803682 C 42.105844,10.714356 41.005769,10.601093 40.745343,10.340667 C 40.347226,9.9425495 40.489135,10.593807 40.436666,10.803682 C 40.352948,11.138553 40.229693,11.396501 40.05082,11.575374"
                 id="path4871"
                 transform="matrix(4.5001384,0,0,4.5001384,234.80368,518.28272)" />
              <path
                 style="fill:none;fill-opacity:0.75;fill-rule:evenodd;stroke:#000000;stroke-width:0.1362223;stroke-linecap:butt;stroke-linejoin:miter;stroke-miterlimit:4;stroke-dasharray:none;stroke-opacity:1"
                 d="M 41.671373,11.421035 C 41.492744,11.599665 40.807608,11.174624 40.668173,11.035189 C 40.485377,10.852393 40.706615,11.57566 40.591004,11.806882 C 40.533486,11.921919 40.407103,12.007195 40.282327,12.038389"
                 id="path4873"
                 transform="matrix(4.5001384,0,0,4.5001384,234.80368,518.28272)" />
              <path
                 style="fill:none;fill-opacity:0.75;fill-rule:evenodd;stroke:#000000;stroke-width:0.1362223;stroke-linecap:butt;stroke-linejoin:miter;stroke-miterlimit:4;stroke-dasharray:none;stroke-opacity:1"
                 d="M 40.899681,12.810081 C 40.920424,12.789338 41.031895,12.777162 41.131189,12.578574 C 41.2468,12.347352 40.954864,11.756183 41.208358,11.806882 C 41.286225,11.822455 42.053665,11.89116 42.134388,11.729712 C 42.067311,11.863867 41.98005,11.986942 41.902881,12.115558 C 41.814101,12.263523 41.612421,12.347065 41.439865,12.347065 C 41.101531,12.347065 41.676262,13.022033 41.594204,13.350265 C 41.546928,13.539367 41.46658,13.435348 41.362696,13.504603"
                 id="path4875"
                 transform="matrix(4.5001384,0,0,4.5001384,234.80368,518.28272)" />
              <path
                 style="fill:none;fill-opacity:0.75;fill-rule:evenodd;stroke:#000000;stroke-width:0.1362223;stroke-linecap:butt;stroke-linejoin:miter;stroke-miterlimit:4;stroke-dasharray:none;stroke-opacity:1"
                 d="M 43.600603,11.421035 C 43.548303,11.630237 44.460332,11.17866 44.526634,11.112359 C 44.655249,10.983743 44.783865,11.369589 44.91248,11.498205 C 45.108254,11.693979 45.560737,11.721986 45.838511,11.652543 C 45.873802,11.64372 45.889957,11.601097 45.91568,11.575374"
                 id="path4877"
                 transform="matrix(4.5001384,0,0,4.5001384,234.80368,518.28272)" />
              <path
                 style="fill:none;fill-opacity:0.75;fill-rule:evenodd;stroke:#000000;stroke-width:0.61301923;stroke-linecap:butt;stroke-linejoin:miter;stroke-miterlimit:4;stroke-dasharray:none;stroke-opacity:1"
                 d="M 428.88666,570.43309 C 429.01853,570.40013 433.89205,571.12764 434.09574,571.12764 C 434.96095,571.12764 434.62534,570.61541 436.87392,572.864 C 437.77933,573.76941 439.44265,573.90581 440.69391,573.90581"
                 id="path4879" />
              <path
                 style="fill:none;fill-opacity:0.75;fill-rule:evenodd;stroke:#000000;stroke-width:0.61301923;stroke-linecap:butt;stroke-linejoin:miter;stroke-miterlimit:4;stroke-dasharray:none;stroke-opacity:1"
                 d="M 428.30376,566.69434 C 428.56055,566.31322 429.03398,565.59579 429.53155,565.09822 C 429.85391,564.77585 429.92418,564.14158 430.02266,563.74764 C 430.1744,563.1407 430.39101,562.85345 430.39101,562.15151 C 430.39101,561.56554 431.41865,562.74607 431.98713,562.88819 C 432.79374,563.08984 432.98304,563.10647 433.58326,563.25653 C 434.19396,563.4092 435.04022,563.25653 435.67051,563.25653 C 436.24906,563.25653 437.03449,563.06901 437.26664,563.01097 C 437.49816,562.95309 437.66709,562.74935 437.88054,562.64263"
                 id="path4881" />
            </g>
          </g>
          <path
             style="fill:#000000;fill-opacity:1;fill-rule:evenodd;stroke:#000000;stroke-width:2.30783653px;stroke-linecap:butt;stroke-linejoin:miter;stroke-opacity:1"
             d="M 398.92037,791.48621 C 381.28368,792.71128 359.60874,817.69026 348.01771,840.07512 L 479.32345,840.65356 C 464.95731,822.09256 462.19133,802.84919 423.79327,785.70182 L 398.92037,791.48621 z"
             id="path4110"
             sodipodi:nodetypes="ccccc" />
        </g>
      </g>
    </g>
  </g>
</svg>
