<?xml version="1.0" encoding="UTF-8" standalone="no"?>
<!-- Created with Inkscape (http://www.inkscape.org/) -->
<svg
   xmlns:dc="http://purl.org/dc/elements/1.1/"
   xmlns:cc="http://creativecommons.org/ns#"
   xmlns:rdf="http://www.w3.org/1999/02/22-rdf-syntax-ns#"
   xmlns:svg="http://www.w3.org/2000/svg"
   xmlns="http://www.w3.org/2000/svg"
   xmlns:sodipodi="http://sodipodi.sourceforge.net/DTD/sodipodi-0.dtd"
   xmlns:inkscape="http://www.inkscape.org/namespaces/inkscape"
   width="58.35022"
   height="50"
   id="svg2523"
   sodipodi:version="0.32"
   inkscape:version="0.46"
   version="1.0"
   inkscape:export-filename="/media/Shakti/louise/Documents/Ideas4kids.org/website/icon/instructionicon.png"
   inkscape:export-xdpi="90"
   inkscape:export-ydpi="90"
   sodipodi:docname="template icon2.svg"
   inkscape:output_extension="org.inkscape.output.svg.inkscape">
  <defs
     id="defs2525">
    <inkscape:perspective
       sodipodi:type="inkscape:persp3d"
       inkscape:vp_x="0 : 526.18109 : 1"
       inkscape:vp_y="0 : 1000 : 0"
       inkscape:vp_z="744.09448 : 526.18109 : 1"
       inkscape:persp3d-origin="372.04724 : 350.78739 : 1"
       id="perspective2531" />
  </defs>
  <sodipodi:namedview
     id="base"
     pagecolor="#ffffff"
     bordercolor="#666666"
     borderopacity="1.0"
     gridtolerance="10000"
     guidetolerance="10"
     objecttolerance="10"
     inkscape:pageopacity="0.0"
     inkscape:pageshadow="2"
     inkscape:zoom="13.059391"
     inkscape:cx="22.553542"
     inkscape:cy="37.491632"
     inkscape:document-units="px"
     inkscape:current-layer="g2551"
     showgrid="false"
     inkscape:window-width="711"
     inkscape:window-height="684"
     inkscape:window-x="567"
     inkscape:window-y="95" />
  <metadata
     id="metadata2528">
    <rdf:RDF>
      <cc:Work
         rdf:about="">
        <dc:format>image/svg+xml</dc:format>
        <dc:type
           rdf:resource="http://purl.org/dc/dcmitype/StillImage" />
      </cc:Work>
    </rdf:RDF>
  </metadata>
  <g
     inkscape:label="Layer 1"
     inkscape:groupmode="layer"
     id="layer1"
     transform="translate(-345.82486,-507.37259)">
    <g
       id="g2551"
       transform="matrix(0.5204917,0,0,0.5204917,179.81559,255.27206)">
      <g
         id="g3343"
         transform="matrix(0.9898806,0,0,0.9898806,3.7947612,5.3871663)">
        <path
           sodipodi:nodetypes="ccccc"
           id="path3279"
           d="M 352.36336,516.80095 C 347.89012,514.31607 342.15945,510.76801 338.58479,508.85655 L 319.34445,529.08994 L 333.74368,540.26175 L 352.36336,516.80095 z"
           style="fill:#fff301;fill-opacity:1;fill-rule:evenodd;stroke:#fff301;stroke-width:1.94090068px;stroke-linecap:butt;stroke-linejoin:miter;stroke-opacity:1" />
        <path
           style="fill:#e9c6af;fill-opacity:1;fill-rule:evenodd;stroke:#e9c6af;stroke-width:1.94090068px;stroke-linecap:butt;stroke-linejoin:miter;stroke-opacity:1"
           d="M 342.91497,519.67401 C 349.85935,514.21285 361.02661,525.12684 355.1885,531.17899 C 348.0753,539.24231 337.15479,526.28688 342.91497,519.67401 z"
           id="path3277"
           sodipodi:nodetypes="ccc" />
        <path
           style="fill:#197517;fill-opacity:1;fill-rule:evenodd;stroke:#197517;stroke-width:1.94090068px;stroke-linecap:butt;stroke-linejoin:miter;stroke-opacity:1"
           d="M 354.65902,548.79371 C 360.69998,549.08889 369.74644,554.7852 374.63219,546.17736 C 379.72345,534.2019 397.16239,533.79064 401.94504,546.17737 C 411.9832,570.77307 413.74477,575.29106 408.59033,577.57346 C 403.90125,579.6498 376.62007,581.43497 368.31545,577.8113 C 363.82633,575.85251 371.41126,565.5505 374.565,560.21046 C 369.51899,562.92492 357.69003,561.24752 349.5668,556.37296 C 352.00773,554.8379 354.05543,552.77854 354.65902,548.79371 z"
           id="path3252"
           sodipodi:nodetypes="cccssccc" />
        <g
           transform="matrix(0.3838679,0.2308692,-0.2225708,0.4015815,360.87871,351.71753)"
           id="g3230">
          <path
             style="fill:#e9c6af;fill-opacity:1;fill-rule:evenodd;stroke:#e9c6af;stroke-width:4.2811079px;stroke-linecap:butt;stroke-linejoin:miter;stroke-opacity:1"
             d="M 220,212.36218 C 195,217.36218 179.74123,241.16868 180,272.36218 C 176.3812,309.85525 195.95969,294.68079 190,292.36218 C 203.8274,308.40249 199.98282,307.78315 203.31267,305.3391 C 212.03934,298.9339 217.1686,297.03565 215.48491,298.25573 C 209.58639,302.5301 221.87145,293.47695 221.45428,294.50212 C 221.03711,295.52728 220.2257,296.87532 218.801,298.63534 C 217.72722,299.96184 211.10046,305.83192 209.35543,307.60426 C 202.6953,314.36863 219.08754,323.61125 231.42231,321.41062 C 307.20571,309.35316 330.47622,203.91274 220,212.36218 z"
             id="path3232"
             sodipodi:nodetypes="cccssssscc" />
          <path
             style="fill:#ffffff;fill-opacity:1;fill-rule:evenodd;stroke:#000000;stroke-width:4.2811079px;stroke-linecap:butt;stroke-linejoin:miter;stroke-opacity:1"
             d="M 195,272.36218 C 197.2956,265.24268 201.12856,260.2755 210,262.36218 C 208.53492,272.76534 201.59967,272.22819 195,272.36218 z"
             id="path3236"
             sodipodi:nodetypes="ccc" />
          <path
             sodipodi:type="arc"
             style="fill:#000000;fill-opacity:1;fill-rule:evenodd;stroke:#000000;stroke-width:4.2811079px;stroke-linecap:butt;stroke-linejoin:miter;stroke-opacity:1"
             id="path3238"
             sodipodi:cx="142.5"
             sodipodi:cy="319.86218"
             sodipodi:rx="2.5"
             sodipodi:ry="2.5"
             d="M 145,319.86218 A 2.5,2.5 0 1 1 140,319.86218 A 2.5,2.5 0 1 1 145,319.86218 z"
             transform="translate(57.5,-50)" />
          <path
             style="fill:#61420d;fill-opacity:1;fill-rule:evenodd;stroke:#61420d;stroke-width:4.2811079px;stroke-linecap:butt;stroke-linejoin:miter;stroke-opacity:1"
             d="M 220,207.36218 C 184.60322,223.50209 174.29874,226.94793 177.70863,259.52239 C 186.81581,255.96182 183.68569,239.42707 190.27156,227.59881 C 193.53813,245.56935 249.00534,250.40389 247.02473,254.64468 C 231.47585,287.93717 287.49893,356.16349 313.99716,320.28491 C 323.72485,307.11362 329.46283,330.54392 329.29831,306.69788 C 329.25297,300.12603 335.11303,308.50265 341.94597,299.02503 C 345.58231,293.98125 332.76559,292.95562 339.55096,290.88739 C 351.72761,287.17585 347.75514,285.3011 344.82549,285.55234 C 305.51327,288.92366 287.2907,176.67957 220,207.36218 z"
             id="path3234"
             sodipodi:nodetypes="cccsssssss" />
        </g>
        <g
           transform="matrix(0.383868,0.2216262,-0.2225709,0.385504,358.14782,363.06211)"
           id="g3270">
          <path
             style="fill:#ac9d93;fill-opacity:1;fill-rule:evenodd;stroke:#ac9d93;stroke-width:4.36946821;stroke-linecap:butt;stroke-linejoin:miter;stroke-miterlimit:4;stroke-dasharray:none;stroke-opacity:1"
             d="M 139.2879,340.38993 C 149.5354,336.90203 158.56956,349.38032 168.03605,358.84922 C 175.14492,347.10212 181.03019,347.88042 186.3985,353.94995 C 190.96868,365.73238 183.29982,367.4821 166.84084,362.0261 C 178.10598,369.19593 186.43299,376.19015 174.67137,381.98368 C 164.50107,380.86324 159.70301,375.91924 164.19047,364.36633 C 145.48804,364.74894 139.47624,360.63573 130.7364,357.36951 L 161.78531,358.47563 L 139.2879,340.38993 z"
             id="path3254"
             sodipodi:nodetypes="ccccccccc" />
          <path
             style="fill:#ffffff;fill-opacity:1;fill-rule:evenodd;stroke:#ffffff;stroke-width:4.36946821px;stroke-linecap:butt;stroke-linejoin:miter;stroke-opacity:1"
             d="M 172.67967,360.06152 C 173.68546,351.46695 182.96808,351.87693 184.3411,357.86531 C 185.89494,362.90751 177.06167,363.66077 172.67967,360.06152 z"
             id="path3256"
             sodipodi:nodetypes="ccc" />
          <path
             style="fill:#ffffff;fill-opacity:1;fill-rule:evenodd;stroke:#ffffff;stroke-width:4.36946821px;stroke-linecap:butt;stroke-linejoin:miter;stroke-opacity:1"
             d="M 167.2418,367.20826 C 178.29196,369.9814 180.9612,380.93416 171.08008,378.84755 C 166.04475,380.13647 164.39845,370.54359 167.2418,367.20826 z"
             id="path3258"
             sodipodi:nodetypes="ccc" />
        </g>
        <path
           sodipodi:nodetypes="ccccc"
           id="path3242"
           d="M 399.1407,512.16373 L 407.21591,506.72174 L 405.98708,505.14181 L 397.91186,510.93489 L 399.1407,512.16373 z"
           style="fill:none;fill-opacity:0.75;fill-rule:evenodd;stroke:#197517;stroke-width:1.94090068px;stroke-linecap:butt;stroke-linejoin:miter;stroke-opacity:1" />
        <path
           style="fill:#e9c6af;fill-opacity:1;fill-rule:evenodd;stroke:#e9c6af;stroke-width:1.94090068px;stroke-linecap:butt;stroke-linejoin:miter;stroke-opacity:1"
           d="M 338.66532,544.30315 C 343.95962,537.23074 357.57112,544.88255 353.49835,552.23949 C 348.71446,561.86909 334.81294,552.18154 338.66532,544.30315 z"
           id="path3250"
           sodipodi:nodetypes="ccc" />
        <path
           sodipodi:nodetypes="cccc"
           id="path3281"
           d="M 334.86968,539.66875 L 324.9906,532.16569 L 330.82477,527.57283 L 338.33977,535.17808"
           style="fill:#fff301;fill-opacity:1;fill-rule:evenodd;stroke:#fff301;stroke-width:1.94090068px;stroke-linecap:butt;stroke-linejoin:miter;stroke-opacity:1" />
        <path
           sodipodi:nodetypes="cccccscc"
           id="path3283"
           d="M 356.58382,524.74534 C 361.98902,530.26316 363.853,539.54589 373.96219,542.12371 L 379.42396,543.36502 L 375.70003,546.8407 C 374.1898,549.72343 375.71632,550.06726 370.48652,549.32332 C 365.71937,548.68222 360.9986,543.16584 356.18087,538.03558 C 354.76384,536.52662 353.46728,535.70994 352.36336,534.17932 C 355.29393,532.39291 356.29611,529.17461 356.58382,524.74534 z"
           style="fill:#197517;fill-opacity:1;fill-rule:evenodd;stroke:#197517;stroke-width:1.94090068px;stroke-linecap:butt;stroke-linejoin:miter;stroke-opacity:1" />
        <path
           sodipodi:nodetypes="cc"
           id="path3386"
           d="M 387.43293,502.78576 C 386.26725,503.1115 381.11629,495.40587 377.07559,498.57261"
           style="fill:none;fill-opacity:0.75;fill-rule:evenodd;stroke:#61420d;stroke-width:1.55272043;stroke-linecap:butt;stroke-linejoin:miter;stroke-miterlimit:4;stroke-dasharray:none;stroke-opacity:1" />
        <path
           sodipodi:nodetypes="cccc"
           transform="matrix(1.9212602,0,0,1.9212602,318.38383,483.86975)"
           id="path3341"
           d="M 10.413963,26.742117 L 5.0538345,22.454015 L 9.4950831,17.553326 L 11.868854,19.008218"
           style="fill:none;fill-opacity:0.75;fill-rule:evenodd;stroke:#000000;stroke-width:1.01022279px;stroke-linecap:butt;stroke-linejoin:miter;stroke-opacity:1" />
      </g>
    </g>
  </g>
</svg>
