<?xml version="1.0" encoding="UTF-8" standalone="no"?>
<!-- Created with Inkscape (http://www.inkscape.org/) -->
<svg
   xmlns:dc="http://purl.org/dc/elements/1.1/"
   xmlns:cc="http://creativecommons.org/ns#"
   xmlns:rdf="http://www.w3.org/1999/02/22-rdf-syntax-ns#"
   xmlns:svg="http://www.w3.org/2000/svg"
   xmlns="http://www.w3.org/2000/svg"
   xmlns:sodipodi="http://sodipodi.sourceforge.net/DTD/sodipodi-0.dtd"
   xmlns:inkscape="http://www.inkscape.org/namespaces/inkscape"
   width="120.36229"
   height="100.00438"
   id="svg2"
   sodipodi:version="0.32"
   inkscape:version="0.46"
   version="1.0"
   sodipodi:docname="thanksgiving.svg"
   inkscape:output_extension="org.inkscape.output.svg.inkscape"
   inkscape:export-filename="/media/Shakti/louise/Documents/Ideas4kids.org/website/icon/thanksgiving.png"
   inkscape:export-xdpi="90"
   inkscape:export-ydpi="90">
  <defs
     id="defs4">
    <inkscape:perspective
       sodipodi:type="inkscape:persp3d"
       inkscape:vp_x="0 : 526.18109 : 1"
       inkscape:vp_y="0 : 1000 : 0"
       inkscape:vp_z="744.09448 : 526.18109 : 1"
       inkscape:persp3d-origin="372.04724 : 350.78739 : 1"
       id="perspective10" />
  </defs>
  <sodipodi:namedview
     id="base"
     pagecolor="#ffffff"
     bordercolor="#666666"
     borderopacity="1.0"
     gridtolerance="10000"
     guidetolerance="10"
     objecttolerance="10"
     inkscape:pageopacity="0.0"
     inkscape:pageshadow="2"
     inkscape:zoom="6.4615917"
     inkscape:cx="60.443532"
     inkscape:cy="50.005491"
     inkscape:document-units="px"
     inkscape:current-layer="g3835"
     showgrid="true"
     inkscape:snap-global="false"
     inkscape:window-width="1429"
     inkscape:window-height="871"
     inkscape:window-x="0"
     inkscape:window-y="0">
    <inkscape:grid
       type="xygrid"
       id="grid2383"
       visible="true"
       enabled="true" />
  </sodipodi:namedview>
  <metadata
     id="metadata7">
    <rdf:RDF>
      <cc:Work
         rdf:about="">
        <dc:format>image/svg+xml</dc:format>
        <dc:type
           rdf:resource="http://purl.org/dc/dcmitype/StillImage" />
      </cc:Work>
    </rdf:RDF>
  </metadata>
  <g
     inkscape:label="Layer 1"
     inkscape:groupmode="layer"
     id="layer1"
     transform="translate(-282.34089,-624.67547)">
    <g
       id="g3181"
       transform="matrix(0.5182883,0,0,0.5182883,96.131618,368.58476)">
      <g
         id="g3835"
         transform="matrix(0.9956228,0,0,0.9956228,2.0809055,2.5851265)">
        <g
           style="fill:#ac3f18;fill-opacity:1"
           id="g3791"
           transform="matrix(-1,0,0,1,1077.4629,-0.2641543)">
          <path
             style="fill:#ac3f18;fill-opacity:1;fill-rule:evenodd;stroke:#000000;stroke-width:1.00439644px;stroke-linecap:butt;stroke-linejoin:miter;stroke-opacity:1"
             d="M 86.192034,27.374313 C 84.594013,21.738374 81.36114,14.502726 83.493849,9.9860065 C 89.760333,14.06011 89.389884,20.978614 92.337901,26.474918 L 86.192034,27.374313 z"
             id="path3793"
             transform="matrix(1.9294281,0,0,1.9294281,358.77112,493.68867)"
             sodipodi:nodetypes="cccc" />
          <g
             style="fill:#ac3f18;fill-opacity:1"
             id="g3795">
            <path
               transform="matrix(1.9294281,0,0,1.9294281,358.77112,493.68867)"
               id="path3797"
               d="M 83.493848,10.435704 L 88.890219,26.474918 L 89.639715,26.774716"
               style="fill:#ac3f18;fill-opacity:1;fill-rule:evenodd;stroke:#000000;stroke-width:0.30131894;stroke-linecap:butt;stroke-linejoin:miter;stroke-miterlimit:4;stroke-dasharray:none;stroke-opacity:1" />
            <path
               transform="matrix(1.9294281,0,0,1.9294281,358.77112,493.68867)"
               id="path3799"
               d="M 85.292639,11.3351 L 84.543143,13.583587 L 85.292639,11.3351 z"
               style="fill:#ac3f18;fill-opacity:1;fill-rule:evenodd;stroke:#000000;stroke-width:0;stroke-linecap:butt;stroke-linejoin:miter;stroke-miterlimit:4;stroke-dasharray:none;stroke-opacity:1" />
            <path
               transform="matrix(1.9294281,0,0,1.9294281,358.77112,493.68867)"
               id="path3801"
               d="M 85.06779,11.709848 C 85.06779,11.734831 85.06779,11.759814 85.06779,11.709848 z"
               style="fill:#ac3f18;fill-opacity:1;fill-rule:evenodd;stroke:#000000;stroke-width:1.00439644px;stroke-linecap:butt;stroke-linejoin:miter;stroke-opacity:1" />
            <path
               transform="matrix(1.9294281,0,0,1.9294281,358.77112,493.68867)"
               id="path3803"
               d="M 84.543143,13.208839 C 84.570477,12.945901 84.913787,12.467551 85.06779,12.159545 C 85.143029,12.009067 85.218877,11.958096 85.292639,11.859747"
               style="fill:#ac3f18;fill-opacity:1;fill-rule:evenodd;stroke:#000000;stroke-width:0.20087931;stroke-linecap:butt;stroke-linejoin:miter;stroke-miterlimit:4;stroke-dasharray:none;stroke-opacity:1" />
            <path
               sodipodi:nodetypes="cssc"
               transform="matrix(1.9294281,0,0,1.9294281,358.77112,493.68867)"
               id="path3805"
               d="M 85.217689,15.607226 C 85.306298,15.430009 86.059431,14.673239 86.192034,14.408033 C 86.353426,14.085249 86.416883,13.828101 86.416883,13.433688 C 86.416883,13.358739 86.416883,13.283789 86.416883,13.208839"
               style="fill:#ac3f18;fill-opacity:1;fill-rule:evenodd;stroke:#000000;stroke-width:0.20087931;stroke-linecap:butt;stroke-linejoin:miter;stroke-miterlimit:4;stroke-dasharray:none;stroke-opacity:1" />
            <path
               transform="matrix(1.9294281,0,0,1.9294281,358.77112,493.68867)"
               id="path3807"
               d="M 85.892236,17.031269 C 85.892236,16.662396 86.605748,16.767454 86.86658,16.506622 C 87.081825,16.291377 87.172392,15.957919 87.241328,15.682176 C 87.29018,15.486769 87.451048,15.337685 87.541127,15.157529"
               style="fill:#ac3f18;fill-opacity:1;fill-rule:evenodd;stroke:#000000;stroke-width:0.20087931;stroke-linecap:butt;stroke-linejoin:miter;stroke-miterlimit:4;stroke-dasharray:none;stroke-opacity:1" />
            <path
               sodipodi:nodetypes="cssc"
               transform="matrix(1.9294281,0,0,1.9294281,358.77112,493.68867)"
               id="path3809"
               d="M 86.192034,18.53026 C 86.280259,18.177361 87.188227,18.168788 87.541127,18.080563 C 87.856543,18.001709 88.057159,17.820393 88.215673,17.780765 C 88.314139,17.756148 88.929186,17.349059 88.965169,17.331068"
               style="fill:#ac3f18;fill-opacity:1;fill-rule:evenodd;stroke:#000000;stroke-width:0.20087931;stroke-linecap:butt;stroke-linejoin:miter;stroke-miterlimit:4;stroke-dasharray:none;stroke-opacity:1" />
            <path
               sodipodi:nodetypes="csc"
               transform="matrix(1.9294281,0,0,1.9294281,358.77112,493.68867)"
               id="path3811"
               d="M 86.491832,19.954303 C 87.02322,19.821456 88.560963,19.562154 89.115068,19.654505 C 89.309442,19.6869 89.779323,19.504605 89.864564,19.504605"
               style="fill:#ac3f18;fill-opacity:1;fill-rule:evenodd;stroke:#000000;stroke-width:0.20087931;stroke-linecap:butt;stroke-linejoin:miter;stroke-miterlimit:4;stroke-dasharray:none;stroke-opacity:1" />
            <path
               transform="matrix(1.9294281,0,0,1.9294281,358.77112,493.68867)"
               id="path3813"
               d="M 87.616076,22.052892 C 88.105988,22.134544 89.193701,21.651933 89.789614,21.453295 C 89.860718,21.429594 89.939514,21.453295 90.014463,21.453295"
               style="fill:#ac3f18;fill-opacity:1;fill-rule:evenodd;stroke:#000000;stroke-width:0.20087931;stroke-linecap:butt;stroke-linejoin:miter;stroke-miterlimit:4;stroke-dasharray:none;stroke-opacity:1" />
            <path
               sodipodi:nodetypes="csc"
               transform="matrix(1.9294281,0,0,1.9294281,358.77112,493.68867)"
               id="path3815"
               d="M 87.765975,23.626833 C 88.13844,23.502678 89.619855,23.819965 90.164362,23.851682 C 90.457515,23.868758 90.526032,23.177136 90.68901,23.177136"
               style="fill:#ac3f18;fill-opacity:1;fill-rule:evenodd;stroke:#000000;stroke-width:0.20087931;stroke-linecap:butt;stroke-linejoin:miter;stroke-miterlimit:4;stroke-dasharray:none;stroke-opacity:1" />
            <path
               transform="matrix(1.9294281,0,0,1.9294281,358.77112,493.68867)"
               id="path3817"
               d="M 83.19405,12.759142 C 83.424103,12.816655 83.868871,12.946653 84.243344,13.13389 C 84.293311,13.158873 84.343277,13.183856 84.393244,13.208839"
               style="fill:#ac3f18;fill-opacity:1;fill-rule:evenodd;stroke:#000000;stroke-width:0.20087931;stroke-linecap:butt;stroke-linejoin:miter;stroke-miterlimit:4;stroke-dasharray:none;stroke-opacity:1" />
            <path
               transform="matrix(1.9294281,0,0,1.9294281,358.77112,493.68867)"
               id="path3819"
               d="M 83.343949,14.632882 C 83.466324,14.694069 84.199876,14.798522 84.468193,14.93268 C 84.582134,14.989651 84.718025,14.982647 84.842941,15.00763"
               style="fill:#ac3f18;fill-opacity:1;fill-rule:evenodd;stroke:#000000;stroke-width:0.20087931;stroke-linecap:butt;stroke-linejoin:miter;stroke-miterlimit:4;stroke-dasharray:none;stroke-opacity:1" />
            <path
               sodipodi:nodetypes="csc"
               transform="matrix(1.9294281,0,0,1.9294281,358.77112,493.68867)"
               id="path3821"
               d="M 83.34395,16.656521 C 83.405637,16.687365 84.45407,16.581571 84.842941,16.581571 C 85.092773,16.581571 85.342605,16.581571 85.592437,16.581571"
               style="fill:#ac3f18;fill-opacity:1;fill-rule:evenodd;stroke:#000000;stroke-width:0.20087931;stroke-linecap:butt;stroke-linejoin:miter;stroke-miterlimit:4;stroke-dasharray:none;stroke-opacity:1" />
            <path
               transform="matrix(1.9294281,0,0,1.9294281,358.77112,493.68867)"
               id="path3823"
               d="M 83.943546,18.080563 C 84.020899,18.080563 84.737605,18.155513 85.14274,18.155513 C 85.417555,18.155513 85.69237,18.155513 85.967185,18.155513"
               style="fill:#ac3f18;fill-opacity:1;fill-rule:evenodd;stroke:#000000;stroke-width:0.20087931;stroke-linecap:butt;stroke-linejoin:miter;stroke-miterlimit:4;stroke-dasharray:none;stroke-opacity:1" />
            <path
               transform="matrix(1.9294281,0,0,1.9294281,358.77112,493.68867)"
               id="path3825"
               d="M 84.393244,20.329051 C 84.819785,20.329051 85.423824,20.029253 86.042135,20.029253 C 86.257541,20.029253 86.338049,20.011486 86.566782,19.954303"
               style="fill:#ac3f18;fill-opacity:1;fill-rule:evenodd;stroke:#000000;stroke-width:0.20087931;stroke-linecap:butt;stroke-linejoin:miter;stroke-miterlimit:4;stroke-dasharray:none;stroke-opacity:1" />
            <path
               sodipodi:nodetypes="csc"
               transform="matrix(1.9294281,0,0,1.9294281,358.77112,493.68867)"
               id="path3827"
               d="M 85.06779,22.052892 C 85.30232,22.052892 86.029248,22.052892 86.491832,22.052892 C 86.735803,22.052892 87.431588,22.099014 87.616076,22.052892"
               style="fill:#ac3f18;fill-opacity:1;fill-rule:evenodd;stroke:#000000;stroke-width:0.20087931;stroke-linecap:butt;stroke-linejoin:miter;stroke-miterlimit:4;stroke-dasharray:none;stroke-opacity:1" />
            <path
               sodipodi:nodetypes="csc"
               transform="matrix(1.9294281,0,0,1.9294281,358.77112,493.68867)"
               id="path3829"
               d="M 85.742336,24.376329 C 86.050076,24.376329 86.459225,23.984644 86.791631,23.851682 C 87.056109,23.74589 87.639527,23.69592 87.915874,23.626833"
               style="fill:#ac3f18;fill-opacity:1;fill-rule:evenodd;stroke:#000000;stroke-width:0.20087931;stroke-linecap:butt;stroke-linejoin:miter;stroke-miterlimit:4;stroke-dasharray:none;stroke-opacity:1" />
            <path
               transform="matrix(1.9294281,0,0,1.9294281,358.77112,493.68867)"
               id="path3831"
               d="M 86.042135,25.500573 C 86.275851,25.407087 87.120402,25.486086 87.391227,25.350674 C 87.570883,25.260846 87.884955,25.114818 88.140723,25.050875 C 88.243165,25.025265 88.253935,24.937663 88.290623,24.900976"
               style="fill:#ac3f18;fill-opacity:1;fill-rule:evenodd;stroke:#000000;stroke-width:0.20087931;stroke-linecap:butt;stroke-linejoin:miter;stroke-miterlimit:4;stroke-dasharray:none;stroke-opacity:1" />
            <path
               sodipodi:nodetypes="csc"
               transform="matrix(1.9294281,0,0,1.9294281,358.77112,493.68867)"
               id="path3833"
               d="M 88.440522,24.826027 C 88.831336,24.728323 89.623649,24.848781 90.014463,24.751077 C 90.177052,24.71043 91.063758,24.30138 91.213657,24.22643"
               style="fill:#ac3f18;fill-opacity:1;fill-rule:evenodd;stroke:#000000;stroke-width:0.20087931;stroke-linecap:butt;stroke-linejoin:miter;stroke-miterlimit:4;stroke-dasharray:none;stroke-opacity:1" />
          </g>
        </g>
        <g
           style="fill:#9c701e;fill-opacity:1"
           transform="translate(3.2775854,0)"
           id="g3768">
          <path
             style="fill:#9c701e;fill-opacity:1;fill-rule:evenodd;stroke:#000000;stroke-width:1.00439644px;stroke-linecap:butt;stroke-linejoin:miter;stroke-opacity:1"
             d="M 86.192034,27.374313 C 84.594013,21.738374 81.36114,14.502726 83.493849,9.9860065 C 89.760333,14.06011 89.389884,20.978614 92.337901,26.474918 L 86.192034,27.374313 z"
             id="path3707"
             transform="matrix(1.9294281,0,0,1.9294281,358.77112,493.68867)"
             sodipodi:nodetypes="cccc" />
          <g
             style="fill:#9c701e;fill-opacity:1"
             id="g3747">
            <path
               transform="matrix(1.9294281,0,0,1.9294281,358.77112,493.68867)"
               id="path3709"
               d="M 83.493848,10.435704 L 88.890219,26.474918 L 89.639715,26.774716"
               style="fill:#9c701e;fill-opacity:1;fill-rule:evenodd;stroke:#000000;stroke-width:0.30131894;stroke-linecap:butt;stroke-linejoin:miter;stroke-miterlimit:4;stroke-dasharray:none;stroke-opacity:1" />
            <path
               transform="matrix(1.9294281,0,0,1.9294281,358.77112,493.68867)"
               id="path3711"
               d="M 85.292639,11.3351 L 84.543143,13.583587 L 85.292639,11.3351 z"
               style="fill:#9c701e;fill-opacity:1;fill-rule:evenodd;stroke:#000000;stroke-width:0;stroke-linecap:butt;stroke-linejoin:miter;stroke-miterlimit:4;stroke-dasharray:none;stroke-opacity:1" />
            <path
               transform="matrix(1.9294281,0,0,1.9294281,358.77112,493.68867)"
               id="path3713"
               d="M 85.06779,11.709848 C 85.06779,11.734831 85.06779,11.759814 85.06779,11.709848 z"
               style="fill:#9c701e;fill-opacity:1;fill-rule:evenodd;stroke:#000000;stroke-width:1.00439644px;stroke-linecap:butt;stroke-linejoin:miter;stroke-opacity:1" />
            <path
               transform="matrix(1.9294281,0,0,1.9294281,358.77112,493.68867)"
               id="path3715"
               d="M 84.543143,13.208839 C 84.570477,12.945901 84.913787,12.467551 85.06779,12.159545 C 85.143029,12.009067 85.218877,11.958096 85.292639,11.859747"
               style="fill:#9c701e;fill-opacity:1;fill-rule:evenodd;stroke:#000000;stroke-width:0.20087931;stroke-linecap:butt;stroke-linejoin:miter;stroke-miterlimit:4;stroke-dasharray:none;stroke-opacity:1" />
            <path
               sodipodi:nodetypes="cssc"
               transform="matrix(1.9294281,0,0,1.9294281,358.77112,493.68867)"
               id="path3717"
               d="M 85.217689,15.607226 C 85.306298,15.430009 86.059431,14.673239 86.192034,14.408033 C 86.353426,14.085249 86.416883,13.828101 86.416883,13.433688 C 86.416883,13.358739 86.416883,13.283789 86.416883,13.208839"
               style="fill:#9c701e;fill-opacity:1;fill-rule:evenodd;stroke:#000000;stroke-width:0.20087931;stroke-linecap:butt;stroke-linejoin:miter;stroke-miterlimit:4;stroke-dasharray:none;stroke-opacity:1" />
            <path
               transform="matrix(1.9294281,0,0,1.9294281,358.77112,493.68867)"
               id="path3719"
               d="M 85.892236,17.031269 C 85.892236,16.662396 86.605748,16.767454 86.86658,16.506622 C 87.081825,16.291377 87.172392,15.957919 87.241328,15.682176 C 87.29018,15.486769 87.451048,15.337685 87.541127,15.157529"
               style="fill:#9c701e;fill-opacity:1;fill-rule:evenodd;stroke:#000000;stroke-width:0.20087931;stroke-linecap:butt;stroke-linejoin:miter;stroke-miterlimit:4;stroke-dasharray:none;stroke-opacity:1" />
            <path
               sodipodi:nodetypes="cssc"
               transform="matrix(1.9294281,0,0,1.9294281,358.77112,493.68867)"
               id="path3721"
               d="M 86.192034,18.53026 C 86.280259,18.177361 87.188227,18.168788 87.541127,18.080563 C 87.856543,18.001709 88.057159,17.820393 88.215673,17.780765 C 88.314139,17.756148 88.929186,17.349059 88.965169,17.331068"
               style="fill:#9c701e;fill-opacity:1;fill-rule:evenodd;stroke:#000000;stroke-width:0.20087931;stroke-linecap:butt;stroke-linejoin:miter;stroke-miterlimit:4;stroke-dasharray:none;stroke-opacity:1" />
            <path
               sodipodi:nodetypes="csc"
               transform="matrix(1.9294281,0,0,1.9294281,358.77112,493.68867)"
               id="path3723"
               d="M 86.491832,19.954303 C 87.02322,19.821456 88.560963,19.562154 89.115068,19.654505 C 89.309442,19.6869 89.779323,19.504605 89.864564,19.504605"
               style="fill:#9c701e;fill-opacity:1;fill-rule:evenodd;stroke:#000000;stroke-width:0.20087931;stroke-linecap:butt;stroke-linejoin:miter;stroke-miterlimit:4;stroke-dasharray:none;stroke-opacity:1" />
            <path
               transform="matrix(1.9294281,0,0,1.9294281,358.77112,493.68867)"
               id="path3725"
               d="M 87.616076,22.052892 C 88.105988,22.134544 89.193701,21.651933 89.789614,21.453295 C 89.860718,21.429594 89.939514,21.453295 90.014463,21.453295"
               style="fill:#9c701e;fill-opacity:1;fill-rule:evenodd;stroke:#000000;stroke-width:0.20087931;stroke-linecap:butt;stroke-linejoin:miter;stroke-miterlimit:4;stroke-dasharray:none;stroke-opacity:1" />
            <path
               sodipodi:nodetypes="csc"
               transform="matrix(1.9294281,0,0,1.9294281,358.77112,493.68867)"
               id="path3727"
               d="M 87.765975,23.626833 C 88.13844,23.502678 89.619855,23.819965 90.164362,23.851682 C 90.457515,23.868758 90.526032,23.177136 90.68901,23.177136"
               style="fill:#9c701e;fill-opacity:1;fill-rule:evenodd;stroke:#000000;stroke-width:0.20087931;stroke-linecap:butt;stroke-linejoin:miter;stroke-miterlimit:4;stroke-dasharray:none;stroke-opacity:1" />
            <path
               transform="matrix(1.9294281,0,0,1.9294281,358.77112,493.68867)"
               id="path3729"
               d="M 83.19405,12.759142 C 83.424103,12.816655 83.868871,12.946653 84.243344,13.13389 C 84.293311,13.158873 84.343277,13.183856 84.393244,13.208839"
               style="fill:#9c701e;fill-opacity:1;fill-rule:evenodd;stroke:#000000;stroke-width:0.20087931;stroke-linecap:butt;stroke-linejoin:miter;stroke-miterlimit:4;stroke-dasharray:none;stroke-opacity:1" />
            <path
               transform="matrix(1.9294281,0,0,1.9294281,358.77112,493.68867)"
               id="path3731"
               d="M 83.343949,14.632882 C 83.466324,14.694069 84.199876,14.798522 84.468193,14.93268 C 84.582134,14.989651 84.718025,14.982647 84.842941,15.00763"
               style="fill:#9c701e;fill-opacity:1;fill-rule:evenodd;stroke:#000000;stroke-width:0.20087931;stroke-linecap:butt;stroke-linejoin:miter;stroke-miterlimit:4;stroke-dasharray:none;stroke-opacity:1" />
            <path
               sodipodi:nodetypes="csc"
               transform="matrix(1.9294281,0,0,1.9294281,358.77112,493.68867)"
               id="path3733"
               d="M 83.34395,16.656521 C 83.405637,16.687365 84.45407,16.581571 84.842941,16.581571 C 85.092773,16.581571 85.342605,16.581571 85.592437,16.581571"
               style="fill:#9c701e;fill-opacity:1;fill-rule:evenodd;stroke:#000000;stroke-width:0.20087931;stroke-linecap:butt;stroke-linejoin:miter;stroke-miterlimit:4;stroke-dasharray:none;stroke-opacity:1" />
            <path
               transform="matrix(1.9294281,0,0,1.9294281,358.77112,493.68867)"
               id="path3735"
               d="M 83.943546,18.080563 C 84.020899,18.080563 84.737605,18.155513 85.14274,18.155513 C 85.417555,18.155513 85.69237,18.155513 85.967185,18.155513"
               style="fill:#9c701e;fill-opacity:1;fill-rule:evenodd;stroke:#000000;stroke-width:0.20087931;stroke-linecap:butt;stroke-linejoin:miter;stroke-miterlimit:4;stroke-dasharray:none;stroke-opacity:1" />
            <path
               transform="matrix(1.9294281,0,0,1.9294281,358.77112,493.68867)"
               id="path3737"
               d="M 84.393244,20.329051 C 84.819785,20.329051 85.423824,20.029253 86.042135,20.029253 C 86.257541,20.029253 86.338049,20.011486 86.566782,19.954303"
               style="fill:#9c701e;fill-opacity:1;fill-rule:evenodd;stroke:#000000;stroke-width:0.20087931;stroke-linecap:butt;stroke-linejoin:miter;stroke-miterlimit:4;stroke-dasharray:none;stroke-opacity:1" />
            <path
               sodipodi:nodetypes="csc"
               transform="matrix(1.9294281,0,0,1.9294281,358.77112,493.68867)"
               id="path3739"
               d="M 85.06779,22.052892 C 85.30232,22.052892 86.029248,22.052892 86.491832,22.052892 C 86.735803,22.052892 87.431588,22.099014 87.616076,22.052892"
               style="fill:#9c701e;fill-opacity:1;fill-rule:evenodd;stroke:#000000;stroke-width:0.20087931;stroke-linecap:butt;stroke-linejoin:miter;stroke-miterlimit:4;stroke-dasharray:none;stroke-opacity:1" />
            <path
               sodipodi:nodetypes="csc"
               transform="matrix(1.9294281,0,0,1.9294281,358.77112,493.68867)"
               id="path3741"
               d="M 85.742336,24.376329 C 86.050076,24.376329 86.459225,23.984644 86.791631,23.851682 C 87.056109,23.74589 87.639527,23.69592 87.915874,23.626833"
               style="fill:#9c701e;fill-opacity:1;fill-rule:evenodd;stroke:#000000;stroke-width:0.20087931;stroke-linecap:butt;stroke-linejoin:miter;stroke-miterlimit:4;stroke-dasharray:none;stroke-opacity:1" />
            <path
               transform="matrix(1.9294281,0,0,1.9294281,358.77112,493.68867)"
               id="path3743"
               d="M 86.042135,25.500573 C 86.275851,25.407087 87.120402,25.486086 87.391227,25.350674 C 87.570883,25.260846 87.884955,25.114818 88.140723,25.050875 C 88.243165,25.025265 88.253935,24.937663 88.290623,24.900976"
               style="fill:#9c701e;fill-opacity:1;fill-rule:evenodd;stroke:#000000;stroke-width:0.20087931;stroke-linecap:butt;stroke-linejoin:miter;stroke-miterlimit:4;stroke-dasharray:none;stroke-opacity:1" />
            <path
               sodipodi:nodetypes="csc"
               transform="matrix(1.9294281,0,0,1.9294281,358.77112,493.68867)"
               id="path3745"
               d="M 88.440522,24.826027 C 88.831336,24.728323 89.623649,24.848781 90.014463,24.751077 C 90.177052,24.71043 91.063758,24.30138 91.213657,24.22643"
               style="fill:#9c701e;fill-opacity:1;fill-rule:evenodd;stroke:#000000;stroke-width:0.20087931;stroke-linecap:butt;stroke-linejoin:miter;stroke-miterlimit:4;stroke-dasharray:none;stroke-opacity:1" />
          </g>
        </g>
        <path
           id="path3693"
           d="M 508.92124,571.23371 L 533.79415,651.05834 L 496.77403,655.39664 C 493.60708,627.7854 492.71948,600.3641 499.08778,573.54746 L 508.92124,571.23371 z"
           style="fill:#000000;fill-opacity:1;fill-rule:evenodd;stroke:#000000;stroke-width:1.9379108px;stroke-linecap:butt;stroke-linejoin:miter;stroke-opacity:1"
           sodipodi:nodetypes="ccccc" />
        <path
           id="path3691"
           d="M 567.58776,570.22145 L 542.71485,658.54974 L 579.73497,663.35019 C 582.76177,630.7869 580.7393,601.37941 577.42122,572.78168 L 567.58776,570.22145 z"
           style="fill:#000000;fill-opacity:1;fill-rule:evenodd;stroke:#000000;stroke-width:1.9379108px;stroke-linecap:butt;stroke-linejoin:miter;stroke-opacity:1"
           sodipodi:nodetypes="ccccc" />
        <g
           inkscape:export-ydpi="90"
           inkscape:export-xdpi="90"
           inkscape:export-filename="/media/Shakti/louise/Documents/Ideas4kids.org/website/icon/thanksgiving.png"
           transform="matrix(0.7739343,0,0,0.7739343,93.974392,133.46407)"
           id="g3589">
          <path
             style="fill:#000000;fill-opacity:1;fill-rule:evenodd;stroke:#000000;stroke-width:1.29777992px;stroke-linecap:butt;stroke-linejoin:miter;stroke-opacity:1"
             d="M 24.883265,35.429729 C 14.375196,44.654831 17.75469,48.09345 15.889314,53.71743 C 41.170518,53.81557 66.346865,53.808853 90.838909,53.117833 C 89.471763,45.190181 87.291305,37.465857 82.744352,30.333157 L 60.559272,22.538399 C 53.922244,26.309289 47.811241,25.345949 41.971773,21.938802 L 24.883265,35.429729 z"
             id="path3563"
             transform="matrix(1.9294281,0,0,1.9294281,312.7329,610.33141)"
             sodipodi:nodetypes="ccccccc" />
          <path
             style="fill:#000000;fill-opacity:1;fill-rule:evenodd;stroke:#000000;stroke-width:1.29777992px;stroke-linecap:butt;stroke-linejoin:miter;stroke-opacity:1"
             d="M 17.838004,-19.733173 C 39.193092,-15.378477 67.754342,-19.863664 77.048183,-35.772386 C 62.325929,-48.136097 19.110994,-30.998981 17.838004,-19.733173 z"
             id="path3545"
             transform="matrix(1.9294281,0,0,1.9294281,312.7329,610.33141)"
             sodipodi:nodetypes="ccc" />
          <path
             sodipodi:type="arc"
             style="fill:#f4e3d7;fill-opacity:1;fill-rule:evenodd;stroke:#f4e3d7;stroke-width:0.64888996;stroke-linecap:butt;stroke-linejoin:miter;stroke-miterlimit:4;stroke-dasharray:none;stroke-opacity:1"
             id="path3543"
             sodipodi:cx="50.665924"
             sodipodi:cy="-12.238214"
             sodipodi:rx="24.883265"
             sodipodi:ry="28.181047"
             d="M 75.549189,-12.238214 A 24.883265,28.181047 0 1 1 25.78266,-12.238214 A 24.883265,28.181047 0 1 1 75.549189,-12.238214 z"
             transform="matrix(1.9294281,0,0,1.9294281,312.7329,610.33141)" />
          <path
             style="fill:#784421;fill-opacity:1;fill-rule:evenodd;stroke:#784421;stroke-width:1.29777992px;stroke-linecap:butt;stroke-linejoin:miter;stroke-opacity:1"
             d="M 26.382257,-22.731156 L 23.684072,-16.735189 C 25.487355,-16.218333 25.857064,-18.141572 28.480846,-15.535995 C 30.496067,-22.449688 34.127216,-29.201788 44.070361,-35.322688 L 26.382257,-22.731156 z"
             id="path3585"
             transform="matrix(1.9294281,0,0,1.9294281,312.7329,610.33141)"
             sodipodi:nodetypes="ccccc" />
          <path
             style="fill:#784421;fill-opacity:1;fill-rule:evenodd;stroke:#784421;stroke-width:2.50397348px;stroke-linecap:butt;stroke-linejoin:miter;stroke-opacity:1"
             d="M 450.34746,549.31987 L 456.52187,560.40209 C 453.14038,561.69267 455.58356,558.05634 450.96875,563.49737 C 446.65981,550.40628 426.80996,545.36203 413.92553,537.98794 C 426.06617,540.8219 438.20682,532.81227 450.34746,549.31987 z"
             id="path3587"
             sodipodi:nodetypes="ccccc" />
          <path
             style="fill:#000000;fill-opacity:1;fill-rule:evenodd;stroke:#000000;stroke-width:2.50397325px;stroke-linecap:butt;stroke-linejoin:miter;stroke-opacity:1"
             d="M 355.5374,572.25766 C 369.69083,514.98727 415.92654,498.09649 453.8721,546.3516 C 400.51348,528.07364 377.66809,555.95984 355.5374,572.25766 z"
             id="path3549"
             sodipodi:nodetypes="ccc" />
          <path
             style="fill:#000000;fill-opacity:1;fill-rule:evenodd;stroke:#000000;stroke-width:2.50397325px;stroke-linecap:butt;stroke-linejoin:miter;stroke-opacity:1"
             d="M 359.58649,555.77215 L 355.2482,478.26127 L 419.74419,466.69248 L 441.43567,532.34536 C 407.07307,524.57929 382.52256,538.39983 359.58649,555.77215 z"
             id="path3551"
             sodipodi:nodetypes="ccccc" />
          <path
             style="fill:#a9a911;fill-opacity:1;fill-rule:evenodd;stroke:#a9a911;stroke-width:2.50397325px;stroke-linecap:butt;stroke-linejoin:miter;stroke-opacity:1"
             d="M 357.96452,536.47422 L 436.44644,516.55212 L 432.4555,501.9267 L 357.53495,519.58467 L 357.96452,536.47422 z"
             id="path3555"
             sodipodi:nodetypes="ccccc" />
          <path
             style="fill:none;fill-opacity:0.75;fill-rule:evenodd;stroke:#edf802;stroke-width:1.94667006;stroke-linecap:butt;stroke-linejoin:miter;stroke-miterlimit:4;stroke-dasharray:none;stroke-opacity:1"
             d="M 38.074394,-50.912204 L 39.723285,-41.768354 L 49.166934,-44.166741 L 47.218245,-53.310591 L 38.074394,-50.912204 z"
             id="path3557"
             transform="matrix(1.9294281,0,0,1.9294281,312.7329,610.33141)" />
          <path
             style="fill:#f4e3d7;fill-opacity:1;fill-rule:evenodd;stroke:#f4e3d7;stroke-width:1.29777992px;stroke-linecap:butt;stroke-linejoin:miter;stroke-opacity:1"
             d="M 42.57137,15.043439 L 41.971773,25.536383 L 61.158869,25.536383 L 59.659877,13.844246 L 42.57137,15.043439 z"
             id="path3559"
             transform="matrix(1.9294281,0,0,1.9294281,312.7329,610.33141)" />
          <path
             style="fill:#ffffff;fill-opacity:1;fill-rule:evenodd;stroke:#000000;stroke-width:1.29777992px;stroke-linecap:butt;stroke-linejoin:miter;stroke-opacity:1"
             d="M 41.971773,22.2386 L 25.482862,35.429729 C 33.087763,40.995938 41.766404,43.340928 50.965724,44.123882 L 53.064313,25.836181 L 68.653829,42.924688 C 74.274379,39.486465 81.164309,37.063745 83.044151,30.632955 L 60.559272,22.2386 C 55.216112,23.304441 50.37904,25.002893 41.971773,22.2386 z"
             id="path3561"
             transform="matrix(1.9294281,0,0,1.9294281,312.7329,610.33141)"
             sodipodi:nodetypes="cccccccc" />
          <path
             style="fill:#ffffff;fill-opacity:1;fill-rule:evenodd;stroke:#000000;stroke-width:2.50397301px;stroke-linecap:butt;stroke-linejoin:miter;stroke-opacity:1"
             d="M 380.82993,580.84462 C 384.29888,571.99315 395.57363,571.84981 402.88705,575.5292 C 398.26713,583.90249 387.68109,586.51319 380.82993,580.84462 z"
             id="path3565"
             sodipodi:nodetypes="ccc" />
          <path
             sodipodi:type="arc"
             style="fill:#000000;fill-opacity:1;fill-rule:evenodd;stroke:#000000;stroke-width:1.29777992px;stroke-linecap:butt;stroke-linejoin:miter;stroke-opacity:1"
             id="path3567"
             sodipodi:cx="40.997429"
             sodipodi:cy="-15.461046"
             sodipodi:rx="1.8737398"
             sodipodi:ry="1.5739415"
             d="M 42.871169,-15.461046 A 1.8737398,1.5739415 0 1 1 39.123689,-15.461046 A 1.8737398,1.5739415 0 1 1 42.871169,-15.461046 z"
             transform="matrix(1.9258293,0.1177888,-0.1177888,1.9258293,312.18349,604.84763)" />
          <path
             style="fill:#ffffff;fill-opacity:1;fill-rule:evenodd;stroke:#000000;stroke-width:2.50397325px;stroke-linecap:butt;stroke-linejoin:miter;stroke-opacity:1"
             d="M 418.9509,572.34051 C 424.05905,564.32248 435.15048,566.35247 441.61872,571.37102 C 435.47319,578.69823 424.58257,579.22204 418.9509,572.34051 z"
             id="path3575"
             sodipodi:nodetypes="ccc" />
          <path
             sodipodi:type="arc"
             style="fill:#000000;fill-opacity:1;fill-rule:evenodd;stroke:#000000;stroke-width:1.29777992px;stroke-linecap:butt;stroke-linejoin:miter;stroke-opacity:1"
             id="path3577"
             sodipodi:cx="40.997429"
             sodipodi:cy="-15.461046"
             sodipodi:rx="1.8737398"
             sodipodi:ry="1.5739415"
             d="M 42.871169,-15.461046 A 1.8737398,1.5739415 0 1 1 39.123689,-15.461046 A 1.8737398,1.5739415 0 1 1 42.871169,-15.461046 z"
             transform="matrix(1.8671253,0.4863498,-0.4863498,1.8671253,346.6218,582.01706)" />
          <path
             style="fill:none;fill-opacity:0.75;fill-rule:evenodd;stroke:#000000;stroke-width:1.29777992px;stroke-linecap:butt;stroke-linejoin:miter;stroke-opacity:1"
             d="M 51.565321,-15.386096 C 51.745485,-15.192687 51.71522,-13.821581 51.71522,-12.987709 C 51.71522,-12.249114 52.460052,-11.198247 52.764515,-10.589322 C 53.175923,-9.7665059 53.88831,-9.242024 54.113607,-8.3408343 C 54.326953,-7.4874521 54.316439,-7.2034726 54.113607,-6.3921448 C 53.988588,-5.8920655 53.008057,-5.7925481 52.464716,-5.7925481 C 51.476243,-5.7925481 50.938815,-5.8463675 50.516027,-6.6919432 C 50.469515,-6.7849669 50.516027,-7.1587269 50.516027,-7.29154"
             id="path3579"
             transform="matrix(1.9294281,0,0,1.9294281,312.7329,610.33141)" />
          <path
             style="fill:none;fill-opacity:0.75;fill-rule:evenodd;stroke:#c40e31;stroke-width:1.29777992px;stroke-linecap:butt;stroke-linejoin:miter;stroke-opacity:1"
             d="M 44.37016,0.65311707 C 52.384927,7.0482409 58.008368,3.0144558 62.058264,-1.2955724"
             id="path3583"
             transform="matrix(1.9294281,0,0,1.9294281,312.7329,610.33141)"
             sodipodi:nodetypes="cc" />
          <path
             transform="matrix(2.4930128,0,0,2.4930128,342.14367,465.44596)"
             id="path3703"
             d="M 72.10151,41.015139 L 113.62359,40.86524"
             style="fill:none;fill-opacity:0.75;fill-rule:evenodd;stroke:#000000;stroke-width:1.00439644px;stroke-linecap:butt;stroke-linejoin:miter;stroke-opacity:1" />
        </g>
        <path
           sodipodi:nodetypes="cccsccs"
           id="path3632"
           d="M 577.48008,652.8199 C 595.68715,663.29766 590.29276,680.65253 590.33186,686.44591 C 552.58069,686.59614 514.98609,686.58586 478.41333,685.52812 C 480.45483,673.39323 479.05603,656.92687 490.78976,652.13393 L 523.62842,638.72011 C 533.53917,644.49222 542.66443,643.01763 551.38421,637.80231 L 577.48008,652.8199 z"
           style="fill:#803300;fill-opacity:1;fill-rule:evenodd;stroke:#803300;stroke-width:1.93791068px;stroke-linecap:butt;stroke-linejoin:miter;stroke-opacity:1" />
        <path
           transform="matrix(-1.4932506,0,0,1.4932506,614.05859,605.0422)"
           d="M 75.549189,-12.238214 A 24.883265,28.181047 0 1 1 25.78266,-12.238214 A 24.883265,28.181047 0 1 1 75.549189,-12.238214 z"
           sodipodi:ry="28.181047"
           sodipodi:rx="24.883265"
           sodipodi:cy="-12.238214"
           sodipodi:cx="50.665924"
           id="path3636"
           style="fill:#dfbba3;fill-opacity:1;fill-rule:evenodd;stroke:#dfbba3;stroke-width:0.64888996;stroke-linecap:butt;stroke-linejoin:miter;stroke-miterlimit:4;stroke-dasharray:none;stroke-opacity:1"
           sodipodi:type="arc" />
        <path
           sodipodi:nodetypes="cccc"
           id="path3638"
           d="M 544.58442,542.75536 C 581.05788,553.93249 580.36424,583.44746 576.44628,587.33824 C 573.43705,577.01436 563.0981,561.43661 548.2505,552.29657 C 540.25578,550.24495 539.88161,545.09151 544.58442,542.75536 z"
           style="fill:#000000;fill-opacity:1;fill-rule:evenodd;stroke:#000000;stroke-width:1.93791068px;stroke-linecap:butt;stroke-linejoin:miter;stroke-opacity:1" />
        <path
           sodipodi:nodetypes="ccccc"
           id="path3650"
           d="M 550.48887,627.50582 L 551.38421,643.17442 C 542.63454,652.78295 533.02477,652.07028 522.73307,643.17442 L 524.97144,625.71513 L 550.48887,627.50582 z"
           style="fill:#dfbba3;fill-opacity:1;fill-rule:evenodd;stroke:#dfbba3;stroke-width:1.93791068px;stroke-linecap:butt;stroke-linejoin:miter;stroke-opacity:1" />
        <path
           sodipodi:nodetypes="ccc"
           id="path3656"
           d="M 561.52347,585.06254 C 557.91147,578.65239 549.25504,579.75695 544.04632,583.36458 C 548.48893,589.28427 556.88329,590.14488 561.52347,585.06254 z"
           style="fill:#ffffff;fill-opacity:1;fill-rule:evenodd;stroke:#000000;stroke-width:1.93791032px;stroke-linecap:butt;stroke-linejoin:miter;stroke-opacity:1" />
        <path
           transform="matrix(-1.4632729,0.2977061,0.2977061,1.4632729,616.70839,595.61432)"
           d="M 42.871169,-15.461046 A 1.8737398,1.5739415 0 1 1 39.123689,-15.461046 A 1.8737398,1.5739415 0 1 1 42.871169,-15.461046 z"
           sodipodi:ry="1.5739415"
           sodipodi:rx="1.8737398"
           sodipodi:cy="-15.461046"
           sodipodi:cx="40.997429"
           id="path3658"
           style="fill:#000000;fill-opacity:1;fill-rule:evenodd;stroke:#000000;stroke-width:1.29777992px;stroke-linecap:butt;stroke-linejoin:miter;stroke-opacity:1"
           sodipodi:type="arc" />
        <path
           sodipodi:nodetypes="ccc"
           id="path3662"
           d="M 530.40678,584.02711 C 526.45341,577.82168 517.86938,579.39276 512.86338,583.27679 C 517.61962,588.94757 526.04824,589.35296 530.40678,584.02711 z"
           style="fill:#ffffff;fill-opacity:1;fill-rule:evenodd;stroke:#000000;stroke-width:1.93791056px;stroke-linecap:butt;stroke-linejoin:miter;stroke-opacity:1" />
        <path
           transform="matrix(-1.4450322,0.3764029,0.3764029,1.4450322,585.80631,591.80534)"
           d="M 42.871169,-15.461046 A 1.8737398,1.5739415 0 1 1 39.123689,-15.461046 A 1.8737398,1.5739415 0 1 1 42.871169,-15.461046 z"
           sodipodi:ry="1.5739415"
           sodipodi:rx="1.8737398"
           sodipodi:cy="-15.461046"
           sodipodi:cx="40.997429"
           id="path3664"
           style="fill:#000000;fill-opacity:1;fill-rule:evenodd;stroke:#000000;stroke-width:1.29777992px;stroke-linecap:butt;stroke-linejoin:miter;stroke-opacity:1"
           sodipodi:type="arc" />
        <path
           id="path3666"
           d="M 537.34786,584.9591 C 537.07883,585.24791 537.12403,587.29532 537.12403,588.5405 C 537.12403,589.6434 536.01181,591.21261 535.55717,592.12189 C 534.94283,593.35056 533.87906,594.13374 533.54263,595.47944 C 533.22405,596.75376 533.23975,597.17781 533.54263,598.38933 C 533.72932,599.13607 535.1935,599.28467 536.00484,599.28467 C 537.48088,599.28467 538.28339,599.20431 538.91472,597.94165 C 538.98418,597.80274 538.91472,597.24463 538.91472,597.0463"
           style="fill:none;fill-opacity:0.75;fill-rule:evenodd;stroke:#000000;stroke-width:1.93791068px;stroke-linecap:butt;stroke-linejoin:miter;stroke-opacity:1" />
        <path
           sodipodi:nodetypes="cc"
           id="path3668"
           d="M 549.24892,610.06655 C 537.28087,619.61607 531.77586,615.90638 525.72835,609.47043"
           style="fill:none;fill-opacity:0.75;fill-rule:evenodd;stroke:#c40e31;stroke-width:1.93791068px;stroke-linecap:butt;stroke-linejoin:miter;stroke-opacity:1" />
        <path
           sodipodi:nodetypes="cccc"
           id="path3689"
           d="M 544.5274,542.51596 C 505.00641,544.95728 496.2207,573.8329 499.24396,578.52412 C 504.76127,569.17574 518.94265,556.41051 536.13255,550.95102 C 542.93281,546.54852 548.71651,545.87614 544.5274,542.51596 z"
           style="fill:#000000;fill-opacity:1;fill-rule:evenodd;stroke:#000000;stroke-width:1.93791091px;stroke-linecap:butt;stroke-linejoin:miter;stroke-opacity:1" />
        <path
           id="path3705"
           d="M 498.17502,567.26806 L 578.86731,569.29259"
           style="fill:none;fill-opacity:0.75;fill-rule:evenodd;stroke:#a5850f;stroke-width:4.65098572;stroke-linecap:butt;stroke-linejoin:miter;stroke-miterlimit:4;stroke-dasharray:none;stroke-opacity:1" />
      </g>
    </g>
  </g>
</svg>
