<?xml version="1.0" encoding="UTF-8" standalone="no"?>
<!-- Created with Inkscape (http://www.inkscape.org/) -->
<svg
   xmlns:dc="http://purl.org/dc/elements/1.1/"
   xmlns:cc="http://creativecommons.org/ns#"
   xmlns:rdf="http://www.w3.org/1999/02/22-rdf-syntax-ns#"
   xmlns:svg="http://www.w3.org/2000/svg"
   xmlns="http://www.w3.org/2000/svg"
   xmlns:sodipodi="http://sodipodi.sourceforge.net/DTD/sodipodi-0.dtd"
   xmlns:inkscape="http://www.inkscape.org/namespaces/inkscape"
   width="90.3349"
   height="100.14438"
   id="svg2"
   sodipodi:version="0.32"
   inkscape:version="0.46"
   version="1.0"
   sodipodi:docname="winter.svg"
   inkscape:output_extension="org.inkscape.output.svg.inkscape"
   inkscape:export-filename="/media/Shakti/louise/Documents/Ideas4kids.org/website/icon/christmas.png"
   inkscape:export-xdpi="90"
   inkscape:export-ydpi="90">
  <defs
     id="defs4">
    <inkscape:perspective
       sodipodi:type="inkscape:persp3d"
       inkscape:vp_x="0 : 526.18109 : 1"
       inkscape:vp_y="0 : 1000 : 0"
       inkscape:vp_z="744.09448 : 526.18109 : 1"
       inkscape:persp3d-origin="372.04724 : 350.78739 : 1"
       id="perspective10" />
  </defs>
  <sodipodi:namedview
     id="base"
     pagecolor="#ffffff"
     bordercolor="#666666"
     borderopacity="1.0"
     gridtolerance="10000"
     guidetolerance="10"
     objecttolerance="10"
     inkscape:pageopacity="0.0"
     inkscape:pageshadow="2"
     inkscape:zoom="5.54965"
     inkscape:cx="63.045906"
     inkscape:cy="57.972157"
     inkscape:document-units="px"
     inkscape:current-layer="g3181"
     showgrid="true"
     inkscape:snap-global="false"
     inkscape:window-width="1429"
     inkscape:window-height="871"
     inkscape:window-x="0"
     inkscape:window-y="0">
    <inkscape:grid
       type="xygrid"
       id="grid2383"
       visible="true"
       enabled="true" />
  </sodipodi:namedview>
  <metadata
     id="metadata7">
    <rdf:RDF>
      <cc:Work
         rdf:about="">
        <dc:format>image/svg+xml</dc:format>
        <dc:type
           rdf:resource="http://purl.org/dc/dcmitype/StillImage" />
      </cc:Work>
    </rdf:RDF>
  </metadata>
  <g
     inkscape:label="Layer 1"
     inkscape:groupmode="layer"
     id="layer1"
     transform="translate(-261.55981,-715.43997)">
    <g
       id="g3181"
       transform="matrix(0.5182883,0,0,0.5182883,96.131618,368.58476)">
      <g
         id="g3265"
         transform="matrix(0.8551034,0,0,0.8551034,58.875718,110.96804)">
        <path
           transform="matrix(1.9294281,0,0,1.9294281,129.20172,685.09436)"
           d="M 175.10565,67.7155 A 31.364424,32.107655 0 1 1 112.3768,67.7155 A 31.364424,32.107655 0 1 1 175.10565,67.7155 z"
           sodipodi:ry="32.107655"
           sodipodi:rx="31.364424"
           sodipodi:cy="67.7155"
           sodipodi:cx="143.74123"
           id="path3227"
           style="fill:#ffffff;fill-opacity:1;fill-rule:evenodd;stroke:#000000;stroke-width:1.16944921px;stroke-linecap:butt;stroke-linejoin:miter;stroke-opacity:1"
           sodipodi:type="arc" />
        <path
           transform="matrix(1.2984777,0,0,1.2058926,220.25601,654.11794)"
           d="M 175.10565,67.7155 A 31.364424,32.107655 0 1 1 112.3768,67.7155 A 31.364424,32.107655 0 1 1 175.10565,67.7155 z"
           sodipodi:ry="32.107655"
           sodipodi:rx="31.364424"
           sodipodi:cy="67.7155"
           sodipodi:cx="143.74123"
           id="path3229"
           style="fill:#ffffff;fill-opacity:1;fill-rule:evenodd;stroke:#000000;stroke-width:1.80317712px;stroke-linecap:butt;stroke-linejoin:miter;stroke-opacity:1"
           sodipodi:type="arc" />
        <path
           sodipodi:nodetypes="cssccccss"
           transform="matrix(1.9294281,0,0,1.9294281,129.20172,685.09436)"
           id="path3231"
           d="M 119.21454,10.337932 C 135.46601,13.335458 143.36404,13.998489 170.34896,10.337931 C 172.90644,9.991003 172.28946,5.3682577 170.34896,4.3920692 C 166.0232,2.215953 165.0968,4.435067 159.34911,4.3920692 L 159.34911,-16.121156 L 129.3225,-15.823862 L 129.61979,4.3920692 C 118.87805,5.5327483 122.88818,3.4924737 119.21454,4.9866554 C 116.062,6.2688871 115.20322,9.5980593 119.21454,10.337932 z"
           style="fill:#000000;fill-opacity:1;fill-rule:evenodd;stroke:#000000;stroke-width:1.16944921px;stroke-linecap:butt;stroke-linejoin:miter;stroke-opacity:1" />
        <path
           sodipodi:nodetypes="cccc"
           id="path3233"
           d="M 407.09162,730.27931 L 429.48429,743.47223 L 405.10606,738.76867 L 407.09162,730.27931 z"
           style="fill:#ff6600;fill-opacity:1;fill-rule:evenodd;stroke:#ff6600;stroke-width:2.25636816px;stroke-linecap:butt;stroke-linejoin:miter;stroke-opacity:1" />
        <path
           transform="matrix(1.9294281,0,0,1.9294281,132.06975,685.09436)"
           d="M 137.64671,21.040483 A 2.155375,2.0810518 0 1 1 133.33596,21.040483 A 2.155375,2.0810518 0 1 1 137.64671,21.040483 z"
           sodipodi:ry="2.0810518"
           sodipodi:rx="2.155375"
           sodipodi:cy="21.040483"
           sodipodi:cx="135.49133"
           id="path3235"
           style="fill:#000000;fill-opacity:1;fill-rule:evenodd;stroke:#000000;stroke-width:1.16944921px;stroke-linecap:butt;stroke-linejoin:miter;stroke-opacity:1"
           sodipodi:type="arc" />
        <path
           transform="matrix(1.9294281,0,0,1.9294281,160.39376,685.14135)"
           d="M 137.64671,21.040483 A 2.155375,2.0810518 0 1 1 133.33596,21.040483 A 2.155375,2.0810518 0 1 1 137.64671,21.040483 z"
           sodipodi:ry="2.0810518"
           sodipodi:rx="2.155375"
           sodipodi:cy="21.040483"
           sodipodi:cx="135.49133"
           id="path3237"
           style="fill:#000000;fill-opacity:1;fill-rule:evenodd;stroke:#000000;stroke-width:1.16944921px;stroke-linecap:butt;stroke-linejoin:miter;stroke-opacity:1"
           sodipodi:type="arc" />
        <path
           transform="matrix(1.9294281,0,0,1.9294281,146.34042,752.54002)"
           d="M 137.64671,21.040483 A 2.155375,2.0810518 0 1 1 133.33596,21.040483 A 2.155375,2.0810518 0 1 1 137.64671,21.040483 z"
           sodipodi:ry="2.0810518"
           sodipodi:rx="2.155375"
           sodipodi:cy="21.040483"
           sodipodi:cx="135.49133"
           id="path3239"
           style="fill:#000000;fill-opacity:1;fill-rule:evenodd;stroke:#000000;stroke-width:1.16944921px;stroke-linecap:butt;stroke-linejoin:miter;stroke-opacity:1"
           sodipodi:type="arc" />
        <path
           transform="matrix(1.9294281,0,0,1.9294281,145.76681,772.90302)"
           d="M 137.64671,21.040483 A 2.155375,2.0810518 0 1 1 133.33596,21.040483 A 2.155375,2.0810518 0 1 1 137.64671,21.040483 z"
           sodipodi:ry="2.0810518"
           sodipodi:rx="2.155375"
           sodipodi:cy="21.040483"
           sodipodi:cx="135.49133"
           id="path3241"
           style="fill:#000000;fill-opacity:1;fill-rule:evenodd;stroke:#000000;stroke-width:1.16944921px;stroke-linecap:butt;stroke-linejoin:miter;stroke-opacity:1"
           sodipodi:type="arc" />
        <path
           transform="matrix(1.9294281,0,0,1.9294281,145.76681,795.84725)"
           d="M 137.64671,21.040483 A 2.155375,2.0810518 0 1 1 133.33596,21.040483 A 2.155375,2.0810518 0 1 1 137.64671,21.040483 z"
           sodipodi:ry="2.0810518"
           sodipodi:rx="2.155375"
           sodipodi:cy="21.040483"
           sodipodi:cx="135.49133"
           id="path3243"
           style="fill:#000000;fill-opacity:1;fill-rule:evenodd;stroke:#000000;stroke-width:1.16944921px;stroke-linecap:butt;stroke-linejoin:miter;stroke-opacity:1"
           sodipodi:type="arc" />
        <path
           transform="matrix(0.99798,0,0,1.0336222,248.16532,728.22438)"
           d="M 137.64671,21.040483 A 2.155375,2.0810518 0 1 1 133.33596,21.040483 A 2.155375,2.0810518 0 1 1 137.64671,21.040483 z"
           sodipodi:ry="2.0810518"
           sodipodi:rx="2.155375"
           sodipodi:cy="21.040483"
           sodipodi:cx="135.49133"
           id="path3245"
           style="fill:#000000;fill-opacity:1;fill-rule:evenodd;stroke:#000000;stroke-width:2.2216115px;stroke-linecap:butt;stroke-linejoin:miter;stroke-opacity:1"
           sodipodi:type="arc" />
        <path
           transform="matrix(0.9979801,0,0,1.0336222,255.04858,732.66983)"
           d="M 137.64671,21.040483 A 2.155375,2.0810518 0 1 1 133.33596,21.040483 A 2.155375,2.0810518 0 1 1 137.64671,21.040483 z"
           sodipodi:ry="2.0810518"
           sodipodi:rx="2.155375"
           sodipodi:cy="21.040483"
           sodipodi:cx="135.49133"
           id="path3247"
           style="fill:#000000;fill-opacity:1;fill-rule:evenodd;stroke:#000000;stroke-width:2.2216115px;stroke-linecap:butt;stroke-linejoin:miter;stroke-opacity:1"
           sodipodi:type="arc" />
        <path
           transform="matrix(0.9979801,0,0,1.0336222,262.21865,736.68507)"
           d="M 137.64671,21.040483 A 2.155375,2.0810518 0 1 1 133.33596,21.040483 A 2.155375,2.0810518 0 1 1 137.64671,21.040483 z"
           sodipodi:ry="2.0810518"
           sodipodi:rx="2.155375"
           sodipodi:cy="21.040483"
           sodipodi:cx="135.49133"
           id="path3249"
           style="fill:#000000;fill-opacity:1;fill-rule:evenodd;stroke:#000000;stroke-width:2.2216115px;stroke-linecap:butt;stroke-linejoin:miter;stroke-opacity:1"
           sodipodi:type="arc" />
        <path
           transform="matrix(0.9979801,0,0,1.0336222,270.53593,738.69269)"
           d="M 137.64671,21.040483 A 2.155375,2.0810518 0 1 1 133.33596,21.040483 A 2.155375,2.0810518 0 1 1 137.64671,21.040483 z"
           sodipodi:ry="2.0810518"
           sodipodi:rx="2.155375"
           sodipodi:cy="21.040483"
           sodipodi:cx="135.49133"
           id="path3251"
           style="fill:#000000;fill-opacity:1;fill-rule:evenodd;stroke:#000000;stroke-width:2.2216115px;stroke-linecap:butt;stroke-linejoin:miter;stroke-opacity:1"
           sodipodi:type="arc" />
        <path
           transform="matrix(0.9979801,0,0,1.0336222,278.56641,737.54547)"
           d="M 137.64671,21.040483 A 2.155375,2.0810518 0 1 1 133.33596,21.040483 A 2.155375,2.0810518 0 1 1 137.64671,21.040483 z"
           sodipodi:ry="2.0810518"
           sodipodi:rx="2.155375"
           sodipodi:cy="21.040483"
           sodipodi:cx="135.49133"
           id="path3253"
           style="fill:#000000;fill-opacity:1;fill-rule:evenodd;stroke:#000000;stroke-width:2.2216115px;stroke-linecap:butt;stroke-linejoin:miter;stroke-opacity:1"
           sodipodi:type="arc" />
        <path
           transform="matrix(0.9979801,0,0,1.0336222,286.31009,733.53023)"
           d="M 137.64671,21.040483 A 2.155375,2.0810518 0 1 1 133.33596,21.040483 A 2.155375,2.0810518 0 1 1 137.64671,21.040483 z"
           sodipodi:ry="2.0810518"
           sodipodi:rx="2.155375"
           sodipodi:cy="21.040483"
           sodipodi:cx="135.49133"
           id="path3255"
           style="fill:#000000;fill-opacity:1;fill-rule:evenodd;stroke:#000000;stroke-width:2.2216115px;stroke-linecap:butt;stroke-linejoin:miter;stroke-opacity:1"
           sodipodi:type="arc" />
        <path
           transform="matrix(0.9979801,0,0,1.0336222,293.48016,728.65459)"
           d="M 137.64671,21.040483 A 2.155375,2.0810518 0 1 1 133.33596,21.040483 A 2.155375,2.0810518 0 1 1 137.64671,21.040483 z"
           sodipodi:ry="2.0810518"
           sodipodi:rx="2.155375"
           sodipodi:cy="21.040483"
           sodipodi:cx="135.49133"
           id="path3257"
           style="fill:#000000;fill-opacity:1;fill-rule:evenodd;stroke:#000000;stroke-width:2.2216115px;stroke-linecap:butt;stroke-linejoin:miter;stroke-opacity:1"
           sodipodi:type="arc" />
        <path
           id="path3259"
           d="M 452.53169,792.86531 L 490.07967,769.22398 L 492.16567,756.36031 L 492.16567,771.30998 L 507.11535,771.65764 L 488.34135,773.74364 L 452.87935,795.64664 L 452.53169,792.86531 z"
           style="fill:#502d16;fill-opacity:1;fill-rule:evenodd;stroke:#502d16;stroke-width:2.25636816px;stroke-linecap:butt;stroke-linejoin:miter;stroke-opacity:1" />
        <path
           id="path3263"
           d="M 360.12659,796.61135 L 322.57861,772.97002 L 320.49261,760.10635 L 320.49261,775.05602 L 305.54293,775.40368 L 324.31693,777.48968 L 359.77893,799.39268 L 360.12659,796.61135 z"
           style="fill:#502d16;fill-opacity:1;fill-rule:evenodd;stroke:#502d16;stroke-width:2.25636816px;stroke-linecap:butt;stroke-linejoin:miter;stroke-opacity:1" />
      </g>
    </g>
  </g>
</svg>
